<?xml version="1.0" encoding="UTF-8" standalone="no"?>
<!-- Created with Inkscape (http://www.inkscape.org/) -->

<svg
   xmlns:dc="http://purl.org/dc/elements/1.1/"
   xmlns:cc="http://creativecommons.org/ns#"
   xmlns:rdf="http://www.w3.org/1999/02/22-rdf-syntax-ns#"
   xmlns:svg="http://www.w3.org/2000/svg"
   xmlns="http://www.w3.org/2000/svg"
   xmlns:sodipodi="http://sodipodi.sourceforge.net/DTD/sodipodi-0.dtd"
   xmlns:inkscape="http://www.inkscape.org/namespaces/inkscape"
   width="128"
   height="128"
   viewBox="0 0 33.866666 33.866668"
   version="1.1"
   id="svg8"
   inkscape:version="0.92.3 (2405546, 2018-03-11)"
   sodipodi:docname="f16_ab_disc_1.svg"
   inkscape:export-filename="/home/cel/Dropbox/Projekty/MScSim/tools/asm3d/aircrafts/f16c/svg/f16_ab_disc_1.svg.png"
   inkscape:export-xdpi="96"
   inkscape:export-ydpi="96">
  <defs
     id="defs2" />
  <sodipodi:namedview
     id="base"
     pagecolor="#ffffff"
     bordercolor="#666666"
     borderopacity="1.0"
     inkscape:pageopacity="0.0"
     inkscape:pageshadow="2"
     inkscape:zoom="2.8"
     inkscape:cx="-55.891325"
     inkscape:cy="49.352036"
     inkscape:document-units="px"
     inkscape:current-layer="layer1"
     showgrid="false"
     inkscape:window-width="1366"
     inkscape:window-height="742"
     inkscape:window-x="0"
     inkscape:window-y="0"
     inkscape:window-maximized="1"
     units="px" />
  <metadata
     id="metadata5">
    <rdf:RDF>
      <cc:Work
         rdf:about="">
        <dc:format>image/svg+xml</dc:format>
        <dc:type
           rdf:resource="http://purl.org/dc/dcmitype/StillImage" />
        <dc:title />
      </cc:Work>
    </rdf:RDF>
  </metadata>
  <g
     inkscape:label="Layer 1"
     inkscape:groupmode="layer"
     id="layer1"
     transform="translate(0,-263.13332)">
    <g
       id="g818">
      <rect
         y="263.13333"
         x="-8.5058593e-07"
         height="33.866669"
         width="33.866669"
         id="rect4964"
         style="fill:#000000;fill-opacity:1;stroke:none;stroke-width:0.64254212;stroke-opacity:1" />
      <path
         id="path4954"
         transform="matrix(0.26458334,0,0,0.26458334,0,263.13332)"
         d="M 64 14 A 50.000001 50.000001 0 0 0 14 64 A 50.000001 50.000001 0 0 0 64 114 A 50.000001 50.000001 0 0 0 114 64 A 50.000001 50.000001 0 0 0 64 14 z M 64 21 A 43.000001 43.000001 0 0 1 107 64 A 43.000001 43.000001 0 0 1 64 107 A 43.000001 43.000001 0 0 1 21 64 A 43.000001 43.000001 0 0 1 64 21 z "
         style="fill:#ffffff;fill-opacity:1;stroke:none;stroke-width:2.16489124;stroke-opacity:1" />
      <path
         id="path4959"
         transform="matrix(0.26458334,0,0,0.26458334,0,263.13332)"
         d="M 64 31.5 A 32.499998 32.499998 0 0 0 31.5 64 A 32.499998 32.499998 0 0 0 64 96.5 A 32.499998 32.499998 0 0 0 96.5 64 A 32.499998 32.499998 0 0 0 64 31.5 z M 64 38 A 26 26 0 0 1 90 64 A 26 26 0 0 1 64 90 A 26 26 0 0 1 38 64 A 26 26 0 0 1 64 38 z "
         style="fill:#ffffff;fill-opacity:1;stroke:none;stroke-width:2.1356411;stroke-opacity:1" />
    </g>
  </g>
</svg>
