<?xml version="1.0" encoding="UTF-8" standalone="no"?>
<!-- Created with Inkscape (http://www.inkscape.org/) -->

<svg
   xmlns:dc="http://purl.org/dc/elements/1.1/"
   xmlns:cc="http://creativecommons.org/ns#"
   xmlns:rdf="http://www.w3.org/1999/02/22-rdf-syntax-ns#"
   xmlns:svg="http://www.w3.org/2000/svg"
   xmlns="http://www.w3.org/2000/svg"
   xmlns:sodipodi="http://sodipodi.sourceforge.net/DTD/sodipodi-0.dtd"
   xmlns:inkscape="http://www.inkscape.org/namespaces/inkscape"
   width="1024"
   height="1024"
   viewBox="0 0 288.99556 288.99556"
   version="1.1"
   id="svg8"
   inkscape:version="0.92.3 (2405546, 2018-03-11)"
   sodipodi:docname="f16_mask.svg"
   inkscape:export-filename="/home/cel/Dropbox/MScSim/tools/models_assembler/aircrafts/f16/svg/f16_mask.png"
   inkscape:export-xdpi="90"
   inkscape:export-ydpi="90">
  <defs
     id="defs2" />
  <sodipodi:namedview
     id="base"
     pagecolor="#ffffff"
     bordercolor="#666666"
     borderopacity="1.0"
     inkscape:pageopacity="0.0"
     inkscape:pageshadow="2"
     inkscape:zoom="0.35355338"
     inkscape:cx="412.82418"
     inkscape:cy="285.70765"
     inkscape:document-units="px"
     inkscape:current-layer="layer1"
     showgrid="false"
     inkscape:window-width="1920"
     inkscape:window-height="1012"
     inkscape:window-x="0"
     inkscape:window-y="0"
     inkscape:window-maximized="1"
     borderlayer="true"
     inkscape:object-paths="false"
     inkscape:snap-intersection-paths="true"
     inkscape:snap-global="false"
     inkscape:snap-bbox="false"
     inkscape:snap-midpoints="false"
     inkscape:object-nodes="true"
     inkscape:snap-center="true"
     inkscape:snap-others="false"
     inkscape:snap-smooth-nodes="false"
     units="px" />
  <metadata
     id="metadata5">
    <rdf:RDF>
      <cc:Work
         rdf:about="">
        <dc:format>image/svg+xml</dc:format>
        <dc:type
           rdf:resource="http://purl.org/dc/dcmitype/StillImage" />
        <dc:title />
      </cc:Work>
    </rdf:RDF>
  </metadata>
  <g
     inkscape:label="Layer 1"
     inkscape:groupmode="layer"
     id="layer1"
     transform="translate(0,-8.004432)">
    <rect
       style="opacity:1;fill:#ff00ff;fill-opacity:1;stroke:none;stroke-width:1;stroke-linecap:square;stroke-linejoin:bevel;stroke-miterlimit:4;stroke-dasharray:none;stroke-opacity:1"
       id="rect5004-5-8"
       width="2.8239999"
       height="0.48017853"
       x="404.15848"
       y="-57.555744"
       transform="scale(1,-1)" />
    <rect
       style="opacity:1;fill:#000000;fill-opacity:1;stroke:none;stroke-width:1;stroke-linecap:square;stroke-linejoin:bevel;stroke-miterlimit:4;stroke-dasharray:none;stroke-opacity:1"
       id="rect4481"
       width="288.99561"
       height="288.99561"
       x="-1.3281549e-05"
       y="8.0044184" />
  </g>
  <g
     inkscape:groupmode="layer"
     id="layer2"
     inkscape:label="Mask"
     style="display:inline">
    <g
       transform="translate(0,-8.004432)"
       id="g4461"
       style="fill:#ffffff;stroke:none">
      <path
         inkscape:connector-curvature="0"
         id="path4532"
         d="m 161.74863,43.105806 1.55222,-1.234723 1.86972,-0.740833 2.08139,-0.352778 1.69334,-0.211667 2.04611,-0.07055 2.36361,0 c 0,0 2.46945,-0.3175 2.64584,-0.3175 0.17639,0 1.79916,-0.282223 1.94027,-0.282223 0.14112,0 1.79917,-0.599722 1.94028,-0.670277 0.14111,-0.07056 1.44639,-1.128889 1.44639,-1.128889 l 0.81139,-1.058334 1.19945,-1.799167 0.70555,-1.340555 0.98778,-1.834445 0.91722,-1.446389 1.16417,-1.587501 1.37583,-2.010833 1.16417,-0.987778 c 0,0 1.34055,-0.776112 1.51694,-0.846667 0.17639,-0.07056 1.83445,-0.599722 2.01084,-0.635 0.17639,-0.03528 1.5875,-0.282222 1.79916,-0.282222 0.21167,0 2.36362,-0.141112 2.36362,-0.141112 l 1.94027,0.03528 c 0,0 1.16417,-0.141111 1.41111,-0.211666 0.24695,-0.07056 2.64584,-0.352778 2.64584,-0.352778 0,0 1.41111,-0.388056 1.5875,-0.493889 0.17639,-0.105834 1.41111,-0.564445 1.55222,-0.670278 0.14111,-0.105833 1.12889,-0.811389 1.12889,-0.811389 0,0 0.49389,-0.599722 0.67028,-0.740834 0.17639,-0.141111 1.16416,-1.27 1.16416,-1.27 l 0.9525,-1.023056 1.02306,-1.093611 0.84667,-0.670278 1.09361,-0.493889 1.30528,-0.352778 1.19944,-0.105833 0,-6.7733345 -32.10278,0 -23.00112,32.0322275 z"
         style="fill:#ffffff;fill-rule:evenodd;stroke:none;stroke-width:0.28222227px;stroke-linecap:butt;stroke-linejoin:miter;stroke-opacity:1" />
      <path
         inkscape:connector-curvature="0"
         id="path4534"
         d="m 233.9357,74.838419 1.24726,0.473959 0.62363,0.174616 c 0,0 0.82319,0 0.92297,-0.02495 0.0998,-0.02495 0.94792,-0.199562 1.07264,-0.249451 0.12473,-0.04989 0.87309,-0.299342 0.99781,-0.399124 0.12473,-0.09978 0.72341,-0.498901 0.89803,-0.623627 0.17461,-0.124728 0.87308,-0.648575 1.02275,-0.7733 0.14967,-0.124728 0.92297,-0.947917 0.92297,-0.947917 0,0 0.92297,-0.87308 1.07264,-0.972862 0.14967,-0.09978 0.97286,-0.598684 1.19737,-0.648572 0.22451,-0.04989 0.92297,-0.274399 1.02275,-0.274399 0.0998,0 1.69627,0.199562 1.69627,0.199562 0,0 0.94792,-0.04989 1.07264,-0.04989 0.12473,0 1.44682,-0.02495 1.5466,-0.04989 0.0998,-0.02495 1.0477,-0.124725 1.0477,-0.124725 0,0 0.79825,-0.04989 0.94792,-0.04989 0.14967,0 1.17242,0.124725 1.29714,0.174616 0.12473,0.04989 0.97287,0.249451 1.12254,0.34923 0.14967,0.09978 1.02275,0.723412 1.02275,0.723412 l 0.84813,0.798243 0.59869,0.823192 0.59868,0.424067 0.94792,0.374179 0.7733,0.02495 1.09759,0.19956 0.92297,0.02495 c 0,0 0.94791,-0.149671 1.09758,-0.199562 0.14967,-0.04989 1.02276,-0.324285 1.14748,-0.374176 0.12473,-0.04989 1.47176,-0.598684 1.47176,-0.598684 l 1.0477,-0.523849 c 0,0 0.92297,-0.673518 1.0477,-0.698464 0.12472,-0.02495 0.84813,-0.648575 0.94791,-0.698466 0.0998,-0.04989 0.72341,-0.723409 0.82319,-0.798243 0.0998,-0.07484 0.59869,-0.623629 0.69847,-0.723409 0.0998,-0.09978 0.47396,-0.573741 0.57374,-0.723412 0.0998,-0.149671 0.89802,-1.147476 0.89802,-1.147476 0,0 0.62363,-0.673521 0.74836,-0.773301 0.12472,-0.09978 0.7733,-0.947916 0.87308,-1.02275 0.0998,-0.07484 0.82319,-0.848138 0.82319,-0.848138 l 1.87089,-1.820996 c 0,0 0.74835,-0.773298 0.87308,-0.87308 0.12472,-0.09978 0.97286,-0.748355 0.97286,-0.748355 0,0 0.74835,-0.7733 0.87308,-0.848134 0.12472,-0.07484 0.62363,-0.548796 0.7733,-0.673521 0.14967,-0.124725 0.64857,-0.598684 0.79824,-0.673518 0.14967,-0.07484 1.02275,-0.873082 1.12254,-0.947917 0.0998,-0.07484 0.7733,-1.172421 0.7733,-1.172421 0,0 -0.0998,-1.022754 -0.12473,-1.122534 -0.0249,-0.09978 -0.37418,-0.848134 -0.37418,-0.848134 0,0 -0.74835,-0.698466 -0.84813,-0.748355 -0.0998,-0.04989 -0.84814,-0.573741 -0.84814,-0.573741 0,0 -0.64857,-0.523847 -0.74835,-0.648572 -0.0998,-0.124725 -1.12253,-0.7733 -1.12253,-0.7733 l -0.87309,-0.748355 -0.52384,-0.324287 -1.37199,-0.898026 -0.89802,-0.349233 c 0,0 -0.64858,-0.174616 -0.7733,-0.199562 -0.12473,-0.02495 -1.07265,-0.04989 -1.07265,-0.04989 0,0 -0.89802,0 -0.9978,0 -0.0998,0 -0.94792,0 -1.07264,0.02495 -0.12473,0.02495 -0.8232,0.174614 -0.92297,0.224505 -0.0998,0.04989 -0.77331,0.324287 -0.77331,0.324287 l -0.67352,0.473959 -0.64857,0.573738 -1.04769,0.922971 -0.92298,0.723409 -0.64857,0.598684 -0.4989,0.498904 -0.49891,0.498904 -0.72341,0.598684 -0.79824,0.648572 -0.74836,0.723412 c 0,0 -0.52385,0.473955 -0.62362,0.498901 -0.0998,0.02495 -0.72342,0.324287 -0.8232,0.324287 -0.0998,0 -0.52384,0.04989 -0.62363,0.04989 -0.0998,0 -0.7733,-0.09978 -0.7733,-0.09978 l -0.7234,-0.349233 -0.62363,-0.424067 -0.62363,-0.399125 -0.5488,-0.523847 -0.29934,-0.449012 -0.39912,-0.42407 -0.39912,-0.349231 -0.37418,-0.274396 -0.24945,-0.249453 -0.47396,-0.299342 -0.4989,-0.224505 c 0,0 -0.62363,-0.174617 -0.74836,-0.199562 -0.12472,-0.02495 -0.67352,-0.124726 -0.67352,-0.124726 l -0.89802,-0.07484 -0.79825,0.02495 -15.64061,20.67954 z"
         style="fill:#ffffff;fill-rule:evenodd;stroke:none;stroke-width:0.28222227px;stroke-linecap:butt;stroke-linejoin:miter;stroke-opacity:1" />
      <path
         inkscape:connector-curvature="0"
         id="path4536"
         d="m 242.35837,127.03165 2.32833,-2.2225 2.08139,-1.76389 1.79917,-1.30527 1.16416,-0.74084 c 0,0 1.16417,-0.84666 1.37584,-0.88194 0.21167,-0.0353 1.5875,-0.42334 1.72861,-0.42334 0.14111,0 2.04611,-0.14111 2.04611,-0.14111 0,0 1.51695,0.10584 1.65806,0.14111 0.14111,0.0353 1.72861,0.28223 1.905,0.35278 0.17639,0.0706 1.19944,0.52917 1.19944,0.52917 l 0.91722,1.16417 0.74084,0.81138 0.77611,1.19945 0.9525,1.37583 0.9525,1.41111 1.34055,1.23473 c 0,0 1.09362,0.70555 1.30528,0.77611 0.21167,0.0705 2.29306,0.38805 2.29306,0.38805 0,0 1.5875,-0.28222 1.72861,-0.35277 0.14111,-0.0706 1.34056,-0.49389 1.55222,-0.635 0.21167,-0.14112 1.16417,-0.635 1.37584,-0.88195 0.21166,-0.24694 1.12889,-1.27 1.27,-1.37583 0.14111,-0.10584 0.88194,-0.81139 1.05833,-0.9525 0.17639,-0.14111 1.12889,-1.02306 1.27,-1.12889 0.14111,-0.10584 1.05833,-1.05834 1.23472,-1.12889 0.17639,-0.0706 0.59972,-0.3175 0.88195,-0.38806 0.28222,-0.0705 1.86972,-0.45861 1.86972,-0.45861 l 1.23471,0 0.24694,26.03501 -4.83304,1.27 -3.13972,-1.34056 -1.55223,-1.09361 c 0,0 -1.12888,-0.88194 -1.27,-0.98778 -0.14111,-0.10583 -0.52916,-0.45861 -0.74083,-0.70555 -0.21167,-0.24695 -0.77611,-0.84667 -0.88194,-0.98778 -0.10584,-0.14111 -0.67028,-0.84667 -0.77611,-0.98778 -0.10584,-0.14111 -0.67028,-0.77611 -0.84667,-0.98778 -0.17639,-0.21166 -0.635,-1.05833 -0.635,-1.05833 l -0.59972,-0.84667 -0.59973,-0.91722 -0.98777,-1.37583 -0.45862,-0.81139 -0.49388,-0.59972 -0.59973,-0.70556 -0.49389,-0.45861 -0.59972,-0.28222 c 0,0 -0.49389,-0.21167 -0.635,-0.21167 -0.14111,0 -0.88194,-0.0705 -0.88194,-0.0705 l -1.05834,0 c 0,0 -0.635,0.14111 -0.84666,0.21166 -0.21167,0.0706 -0.77611,0.3175 -0.84667,0.45861 -0.0706,0.14111 -0.28222,0.52917 -0.28222,0.52917 l -0.49389,0.56444 -0.49389,0.52917 c 0,0 -0.59972,0.38806 -0.74083,0.45861 -0.14111,0.0706 -0.56445,0.35278 -0.56445,0.35278 l -1.09361,0.42333 c 0,0 -1.02305,0.28223 -1.16417,0.28223 -0.14111,0 -1.02305,0.0705 -1.02305,0.0705 l -2.04611,0.10584 -1.51695,-0.24695 -8.21972,-10.05417 z"
         style="fill:#ffffff;fill-rule:evenodd;stroke:none;stroke-width:0.28222227px;stroke-linecap:butt;stroke-linejoin:miter;stroke-opacity:1" />
      <path
         inkscape:connector-curvature="0"
         id="path4538"
         d="m 71.792164,78.929426 1.945722,3.04331 1.895831,1.596491 1.64638,1.097585 1.696272,0.648575 c 0,0 2.045504,0.648575 2.245064,0.698464 0.199562,0.04989 1.596491,0.09978 2.095393,0.04989 0.498904,-0.04989 2.494517,-0.299342 2.694079,-0.349233 0.19956,-0.04989 0.648572,-0.149671 1.097585,-0.449013 0.449013,-0.299342 0.947917,-0.698463 1.247259,-0.898025 0.299342,-0.19956 1.097588,-0.798244 1.446818,-0.848135 0.349233,-0.04989 1.796054,-0.349233 1.995613,-0.349233 0.199563,0 1.995614,-0.149671 2.245064,-0.149671 0.249454,0 1.446821,0.04989 1.796054,0.09978 0.349231,0.04989 1.49671,0.04989 1.74616,0.149671 0.249451,0.09978 1.49671,0.24945 1.49671,0.24945 0,0 1.097592,0 1.496712,0.04989 0.39912,0.04989 1.89583,0.399122 2.14528,0.548793 0.24945,0.149671 1.39693,0.798246 1.59649,0.947917 0.19956,0.149671 2.0455,1.147476 2.0455,1.147476 l 2.14529,1.29715 c 0,0 1.5466,0.598684 1.89583,0.698463 0.34923,0.09978 1.49671,0.299342 2.0455,0.349233 0.5488,0.04989 2.54441,0.249451 2.54441,0.249451 0,0 2.29496,0.349233 2.54441,0.349233 0.24945,0 1.99561,0.09978 2.29495,0.149671 0.29934,0.04989 2.09539,0.199559 2.29496,0.199559 0.19956,0 1.14747,0.04989 1.79605,0 0.64857,-0.04989 2.24506,-0.14967 2.24506,-0.14967 0,0 1.69627,-0.498902 1.99562,-0.598684 0.29934,-0.09978 2.5444,-0.997805 2.5444,-0.997805 0,0 1.14748,-0.548793 1.39693,-0.798246 0.24945,-0.249451 1.49671,-0.997806 1.69627,-1.097588 0.19956,-0.09978 1.19737,-0.698464 1.49671,-0.848134 0.29934,-0.149671 0.84814,-0.399122 1.14748,-0.548793 0.29934,-0.149671 2.0455,-0.997808 2.0455,-0.997808 0,0 1.39693,-0.648572 1.64638,-0.698463 0.24945,-0.04989 2.0455,-0.449013 2.0455,-0.449013 l 2.14529,-0.149671 2.74397,-0.04989 2.59429,0.199562 c 0,0 1.24726,0.149671 1.64638,0.24945 0.39913,0.09978 1.64638,0.349234 1.94573,0.449013 0.29934,0.09978 2.69407,0.997808 2.69407,0.997808 l 2.29496,1.147476 1.69627,1.197368 1.69627,1.29715 1.29715,0.748355 1.89583,1.197367 1.74616,0.997805 2.49452,0.898026 c 0,0 1.69627,0.199562 1.94572,0.249453 0.24945,0.04989 1.74616,0.19956 2.09539,0.19956 0.34924,0 1.89584,0 2.29496,0 0.39912,0 1.64638,-0.19956 1.94572,-0.249451 0.29934,-0.04989 1.29715,-0.299342 1.59649,-0.299342 0.29934,0 2.19518,-0.898025 2.19518,-0.898025 0,0 1.64638,-0.548796 1.89583,-0.698467 0.24945,-0.149671 1.84594,-1.396926 2.14528,-1.496709 0.29934,-0.09978 2.24507,-1.596489 2.24507,-1.596489 l 2.49451,-2.045505 c 0,0 1.99562,-1.696268 2.19518,-1.796051 0.19956,-0.09978 1.99561,-1.895831 2.24506,-1.945722 0.24945,-0.04989 2.24507,-1.297147 2.24507,-1.297147 l 2.74396,-1.147479 c 0,0 2.29496,-0.399122 2.69408,-0.399122 0.39912,0 2.49452,-0.199562 2.89364,-0.09978 0.39912,0.09978 2.54441,0.24945 2.54441,0.24945 0,0 1.84594,0.04989 2.09539,0.09978 0.24945,0.04989 2.29495,0.299342 2.5444,0.299342 0.24946,0 1.69628,-0.34923 2.04551,-0.399122 0.34923,-0.04989 0.9978,-0.299341 1.29715,-0.349233 0.29934,-0.04989 1.59649,-0.798246 1.89583,-0.848134 0.29934,-0.04989 1.39693,-0.848137 1.59649,-0.898026 0.19956,-0.04989 1.5466,-0.947916 1.5466,-0.947916 l 0,-1.249063 8.82565,0 0.3175,1.058334 0.24695,0.9525 0.52917,0.811389 0.84666,0.846667 0.98778,0.9525 1.12889,1.023056 0.88194,0.9525 0.95251,0.599722 1.27,0.776111 1.37583,0.529167 3.175,0.635 c 0,0 0.98778,-0.105833 1.72861,-0.105833 0.74084,0 1.27,-0.03528 1.69334,-0.03528 0.42333,0 1.86972,0 2.01083,0 0.14111,0 1.12889,0 1.30528,0.03528 0.17639,0.03528 0.70555,0.211666 0.84666,0.282222 0.14111,0.07056 1.12889,0.670278 1.27,0.776111 0.14112,0.105834 0.74084,0.564445 0.88195,0.670278 0.14111,0.105833 0.88194,0.705556 1.05833,0.846667 0.17639,0.141111 0.88195,0.705556 1.02306,0.811389 0.14111,0.105833 0.91722,0.9525 0.91722,0.9525 0,0 0.84667,0.670278 0.9525,0.811389 0.10583,0.141111 0.88194,0.705556 0.88194,0.705556 l 0.81139,0.705555 1.12889,1.093612 0.9525,0.846666 0.28223,0.740834 -0.0706,6.632223 -0.56444,0.740833 -0.52917,0.493887 -0.67028,0.635 -0.45861,0.56444 c 0,0 -0.42333,0.45861 -0.70556,0.52917 -0.28222,0.0705 -1.05833,0.21167 -1.55222,0.24694 -0.49389,0.0353 -1.05833,0.10584 -1.44639,0.17639 -0.38805,0.0706 -1.55222,0.52917 -1.69333,0.635 -0.14111,0.10584 -0.67028,0.56445 -0.84667,0.67028 -0.17639,0.10583 -0.88194,0.59972 -0.88194,0.59972 l -0.56445,0.81139 -0.98778,0.67028 c 0,0 -0.84666,0.88194 -0.98777,1.02305 -0.14111,0.14112 -0.84667,1.02306 -0.84667,1.02306 0,0 -0.77611,0.74083 -1.09361,0.88195 -0.3175,0.14111 -0.98778,0.49388 -1.19945,0.59972 -0.21166,0.10583 -0.98777,0.45861 -1.30527,0.49389 -0.3175,0.0353 -1.30528,0.3175 -1.48167,0.35277 -0.17639,0.0353 -1.79917,0.10584 -2.18722,0.10584 -0.38806,0 -1.27,0.0353 -1.51695,0 -0.24694,-0.0353 -1.05833,-0.14111 -1.30528,-0.17639 -0.24694,-0.0353 -1.44639,-0.35278 -1.76389,-0.42333 -0.3175,-0.0706 -0.81139,-0.35277 -1.05833,-0.42333 -0.24695,-0.0705 -0.77611,-0.35278 -1.12889,-0.56445 -0.35278,-0.21167 -0.98778,-0.59972 -1.12889,-0.74084 -0.14111,-0.14111 -1.19944,-0.98777 -1.34055,-1.09361 -0.14112,-0.10583 -0.95251,-0.84666 -0.95251,-0.84666 0,0 -0.81138,-0.88195 -0.9525,-0.98778 -0.14111,-0.10584 -1.16416,-0.88195 -1.16416,-0.88195 l -1.41111,-0.77611 -1.34056,-0.0353 c 0,0 -1.65805,-0.0705 -1.97555,-0.0705 -0.3175,0 -1.27001,-0.0706 -1.58751,-0.0706 -0.3175,0 -1.55222,0.10584 -1.905,0.10584 -0.35277,0 -1.34055,0.10583 -1.55222,0.0353 -0.21166,-0.0705 -0.74083,-0.3175 -0.9525,-0.45861 -0.21166,-0.1411 -0.91722,-0.635 -1.09361,-0.77611 -0.17639,-0.14111 -0.88194,-0.74083 -1.09361,-0.84666 -0.21167,-0.10584 -0.81139,-0.49388 -0.98778,-0.52916 -0.17639,-0.0353 -0.74083,-0.24695 -1.05833,-0.24695 -0.3175,0 -1.05834,-0.0705 -1.37584,-0.0353 -0.3175,0.0353 -0.56444,0.10583 -0.88194,0.14111 -0.3175,0.0353 -1.12889,0.10583 -1.41111,0.10583 -0.28222,0 -0.635,-0.0353 -0.9525,-0.0705 -0.3175,-0.0353 -0.88195,-0.10584 -1.19945,-0.10584 -0.3175,0 -0.74083,0.0353 -0.98777,0.10584 -0.24695,0.0705 -1.16417,0.38806 -1.48167,0.52917 -0.3175,0.1411 -0.9525,0.74084 -1.09361,0.81139 -0.14111,0.0706 -0.77611,0.67028 -0.98778,0.91722 -0.21167,0.24695 -0.70556,0.67028 -0.91722,0.91723 -0.21167,0.24694 -1.09361,1.27 -1.09361,1.27 0,0 -0.42334,0.49388 -0.70556,0.74083 -0.28222,0.24694 -1.37583,0.70555 -1.37583,0.70555 l -1.86973,0.59973 c 0,0 -1.16416,-0.21167 -1.34055,-0.21167 -0.17639,0 -1.09361,-0.14111 -1.34056,-0.17639 -0.24694,-0.0353 -1.30527,-0.28222 -1.62277,-0.3175 -0.3175,-0.0353 -1.30528,-0.17639 -1.48167,-0.21167 -0.17639,-0.0353 -1.16417,-0.14111 -1.41111,-0.14111 -0.24695,0 -1.44639,0.0706 -1.5875,0.0706 -0.14111,0 -0.74084,0.10583 -1.09361,0.24694 -0.35278,0.14111 -2.18723,1.02306 -2.32834,1.09361 -0.14111,0.0706 -1.23472,0.98778 -1.37583,1.12889 -0.14111,0.14112 -0.77611,0.74084 -0.9525,0.9525 -0.17639,0.21167 -1.12889,1.27 -1.12889,1.27 l -1.34056,2.43416 -0.98777,1.02306 -0.91723,1.02305 c 0,0 -0.88194,0.77611 -1.09361,0.91722 -0.21166,0.14112 -1.02305,0.67029 -1.41111,0.88195 -0.38805,0.21167 -1.05833,0.49389 -1.48167,0.52917 -0.42333,0.0353 -1.48166,0.14111 -1.72861,0.14111 -0.24694,0 -2.01083,-0.10584 -2.39889,-0.10584 -0.38805,0 -1.79917,-0.10583 -2.08139,-0.10583 -0.28222,0 -1.905,-0.0353 -2.32833,-0.10583 -0.42334,-0.0706 -1.27,-0.28221 -1.72861,-0.49388 -0.45861,-0.21167 -2.61056,-2.04611 -2.61056,-2.04611 0,0 -0.91722,-0.84667 -1.19944,-1.02306 -0.28223,-0.17639 -1.05834,-0.8114 -1.34056,-0.98778 -0.28222,-0.17639 -1.05833,-0.74084 -1.51694,-0.91722 -0.45862,-0.17639 -1.65806,-0.59973 -1.83445,-0.70556 -0.17639,-0.10584 -1.34055,-0.49388 -1.72861,-0.52916 -0.38806,-0.0353 -0.98778,-0.17639 -1.41111,-0.17639 -0.42334,0 -2.68111,0.14111 -2.68111,0.14111 l -1.86973,0.10583 c 0,0 -1.27,-0.14111 -1.5875,-0.17638 -0.3175,-0.0353 -1.05833,-0.14112 -1.44638,-0.14112 -0.38806,0 -1.30528,-0.0353 -1.72862,-0.0353 -0.42333,0 -1.37583,0.0353 -1.72861,0.0705 -0.35278,0.0353 -1.76389,0.14111 -2.08139,0.17639 -0.3175,0.0353 -1.27,0.17639 -1.51694,0.24695 -0.24695,0.0705 -1.09361,0.38805 -1.27,0.52916 -0.17639,0.14111 -1.30528,0.84667 -1.48167,0.98778 -0.17639,0.14111 -0.9525,0.84668 -1.16417,0.98778 -0.21166,0.14111 -0.77611,0.63501 -0.98777,0.77612 -0.21167,0.1411 -1.41111,1.0936 -1.41111,1.0936 0,0 -1.02306,0.98778 -1.12889,1.12889 -0.10584,0.14111 -0.9525,1.05833 -1.12889,1.19944 -0.17639,0.14112 -0.84667,0.81139 -0.98778,0.98778 -0.14111,0.17639 -1.05833,1.27 -1.23472,1.44639 -0.17639,0.17639 -0.77611,0.91722 -0.77611,0.91722 l -6.70278,-2.68111 -13.05278,-3.24555 -18.06223,-1.69334 -21.378336,-2.46944 -16.22778,-0.98778 0,-27.869444 14.040557,-1.481666 z"
         style="fill:#ffffff;fill-rule:evenodd;stroke:none;stroke-width:0.28222227px;stroke-linecap:butt;stroke-linejoin:miter;stroke-opacity:1" />
      <path
         inkscape:connector-curvature="0"
         id="path4540"
         d="m 151.04294,124.62896 -0.67352,-0.87308 c 0,0 -0.5488,-0.52385 -0.69847,-0.69846 -0.14967,-0.17462 -0.67352,-0.49891 -0.79824,-0.62363 -0.12473,-0.12473 -0.62363,-0.5488 -0.69847,-0.67352 -0.0748,-0.12473 -0.44901,-0.7733 -0.44901,-0.7733 0,0 -0.32429,-0.74836 -0.37418,-0.99781 -0.0499,-0.24945 -0.0998,-0.64857 -0.0249,-0.74835 0.0748,-0.0998 0.22451,-0.42407 0.22451,-0.42407 0,0 0.34924,-0.19956 0.49891,-0.22451 0.14967,-0.025 0.42406,-0.0499 0.57373,-0.0499 0.14968,0 0.94792,0.12473 1.12253,0.14967 0.17462,0.025 0.77331,0.0998 0.94792,0.14967 0.17462,0.0499 0.79825,0.12473 0.92297,0.12473 0.12473,0 0.62363,-0.0249 0.7733,0 0.14967,0.025 0.82319,0.0499 0.94792,0.0748 0.12473,0.025 0.82319,0.0748 0.92297,0.12473 0.0998,0.0499 0.62363,0.24945 0.7733,0.29934 0.14967,0.0499 0.89802,0.59868 1.09759,0.72341 0.19956,0.12473 0.67352,0.52385 0.7733,0.62363 0.0998,0.0998 0.82319,0.84814 0.82319,0.84814 l 0.62362,0.72341 c 0,0 0.89803,0.84813 0.99781,0.92297 0.0998,0.0748 0.74836,0.52384 0.89803,0.59868 0.14967,0.0748 0.67352,0.34923 0.79824,0.42407 0.12473,0.0748 0.94792,0.42406 1.07265,0.47396 0.12472,0.0499 0.74835,0.24945 0.87308,0.29934 0.12472,0.0499 1.02275,0.22451 1.12253,0.22451 0.0998,0 0.79824,0.0249 0.79824,0.0249 l 2.24507,0.0499 1.12253,-0.12473 c 0,0 0.97286,-0.0748 1.17242,-0.0748 0.19956,0 1.07264,0.025 1.22232,0.025 0.14967,0 0.7234,-0.025 0.97286,-0.0748 0.24945,-0.0499 1.09758,-0.17462 1.37198,-0.24946 0.2744,-0.0748 1.02275,-0.27439 1.2722,-0.37417 0.24945,-0.0998 0.84814,-0.29934 1.0477,-0.42407 0.19956,-0.12473 0.52385,-0.37418 0.72341,-0.47396 0.19956,-0.0998 0.84814,-0.59868 0.97286,-0.72341 0.12473,-0.12472 0.59868,-0.62363 0.72341,-0.72341 0.12473,-0.0998 0.62363,-0.79824 0.72341,-0.87308 0.0998,-0.0748 0.82319,-0.84813 0.97286,-0.97286 0.14967,-0.12473 0.79825,-0.74836 0.89803,-0.84813 0.0998,-0.0998 0.69846,-0.89803 0.82319,-0.97286 0.12472,-0.0748 0.82319,-0.7733 0.94791,-0.87309 0.12473,-0.0998 0.74836,-0.52384 0.94792,-0.57374 0.19956,-0.0499 0.79825,-0.27439 1.0477,-0.24945 0.24945,0.025 0.92297,0 1.07264,0 0.14967,0 0.4989,-0.14967 0.7733,-0.17461 0.27439,-0.0249 0.79824,-0.0748 0.94792,-0.0249 0.14967,0.0499 0.62362,0.19956 0.79824,0.2744 0.17462,0.0748 1.2722,0.84813 1.2722,0.84813 l 1.19737,0.62363 0.92297,0.79824 1.09759,0.84814 c 0,0 1.24726,0.97286 1.34704,1.02275 0.0998,0.0499 0.94791,0.67352 1.07264,0.79825 0.12473,0.12472 0.94791,0.84813 1.12253,0.97286 0.17462,0.12472 1.47177,0.97286 1.57155,1.02275 0.0998,0.0499 1.52165,1.02275 1.52165,1.02275 l 1.09759,0.79825 1.821,1.49671 c 0,0 1.09758,0.74835 1.19736,0.84813 0.0998,0.0998 0.82319,0.67352 0.82319,0.67352 l 0.49891,0.79825 0.57373,0.97286 0.2744,0.7733 c 0,0 0.14967,0.82319 0.17462,0.92297 0.0249,0.0998 0.0998,0.72341 0.0748,0.84813 -0.0249,0.12473 0,1.74616 -0.0249,1.84595 -0.0249,0.0998 -0.0249,1.14747 -0.0249,1.14747 0,0 -0.0499,0.7733 -0.0499,0.94792 0,0.17462 -0.0499,1.07264 -0.0249,1.24726 0.0249,0.17462 0.0499,0.9978 0.0499,1.09758 0,0.0998 0,0.5488 -0.0998,0.74836 -0.0998,0.19956 -0.37418,0.57374 -0.47396,0.7733 -0.0998,0.19956 -0.49891,0.74835 -0.62363,0.82319 -0.12473,0.0748 -0.74836,0.57374 -0.84814,0.64858 -0.0998,0.0748 -0.62363,0.52384 -0.74835,0.59868 -0.12473,0.0748 -0.67352,0.44901 -0.79825,0.54879 -0.12472,0.0998 -0.62363,0.57374 -0.7733,0.72341 -0.14967,0.14967 -0.69846,0.82319 -0.69846,0.82319 0,0 -0.34923,0.47396 -0.44901,0.67352 -0.0998,0.19956 -0.34924,0.67352 -0.37418,0.79825 -0.0249,0.12472 -0.12473,0.42406 -0.17462,0.64857 -0.0499,0.22451 0.12473,1.44682 0.12473,1.44682 l 0.12473,1.12253 c 0,0 -0.0499,0.82319 -0.0499,0.94792 0,0.12472 0.0748,0.64857 0.14967,0.92297 0.0748,0.2744 0.39913,0.87308 0.44902,0.99781 0.0499,0.12472 0.29934,0.67351 0.39912,0.82318 0.0998,0.14967 0.44901,0.52385 0.72341,0.74836 0.2744,0.22451 0.67352,0.59869 0.84814,0.7733 0.17461,0.17462 0.42406,0.39912 0.57373,0.59868 0.14967,0.19956 0.62363,0.69847 0.69847,0.82319 0.0748,0.12473 0.39912,0.62363 0.47396,0.87308 0.0748,0.24946 0.27439,0.72341 0.27439,0.72341 l 0.39913,1.24726 0.37417,1.17242 0.0748,1.02276 c 0,0 0.12472,0.89802 0.0998,1.14747 -0.0249,0.24945 -0.0249,1.12254 -0.0249,1.39693 0,0.2744 -0.0499,0.97286 -0.0249,1.12253 0.0249,0.14967 0.0748,1.09759 0.0748,1.19737 0,0.0998 0.12472,0.69847 0.17461,0.84814 0.0499,0.14967 0.17462,0.92297 0.17462,0.92297 0,0 0.0998,0.82319 0.0998,0.92297 0,0.0998 0,0.44901 0,0.54879 0,0.0998 -0.24945,0.47396 -0.24945,0.47396 l -0.32429,0.17462 c 0,0 -0.47396,-0.0249 -0.67352,-0.0249 -0.19956,0 -0.69846,-0.0499 -0.79824,-0.0499 -0.0998,0 -0.49891,-0.0499 -0.79825,-0.0499 -0.29934,0 -0.54879,-0.0249 -0.84813,0.0499 -0.29935,0.0748 -0.62363,0.0748 -0.92297,0.0748 -0.29935,0 -0.64858,-0.0748 -0.84814,-0.19957 -0.19956,-0.12472 -0.29934,-0.2245 -0.47396,-0.34923 -0.17461,-0.12473 -0.47396,-0.39912 -0.47396,-0.39912 0,0 -0.69846,-0.64858 -0.7733,-0.7733 -0.0748,-0.12473 -0.17461,-0.19956 -0.27439,-0.47396 -0.0998,-0.2744 -0.2744,-0.64857 -0.34924,-0.87308 -0.0748,-0.22451 -0.29934,-0.72341 -0.39912,-0.97286 -0.0998,-0.24945 -0.12473,-0.37418 -0.32428,-0.72341 -0.19957,-0.34923 -0.42407,-0.89803 -0.52385,-1.07264 -0.0998,-0.17462 -0.24946,-0.44902 -0.37418,-0.72341 -0.12473,-0.2744 -0.32429,-0.62363 -0.44902,-0.89803 -0.12472,-0.27439 -0.24945,-0.64857 -0.39912,-0.94792 -0.14967,-0.29934 -0.39912,-0.7234 -0.52384,-0.87308 -0.12473,-0.14967 -0.37418,-0.54879 -0.49891,-0.69846 -0.12472,-0.14967 -0.14967,-0.22451 -0.32429,-0.42407 -0.17461,-0.19956 -0.54879,-0.64857 -0.64857,-0.69846 -0.0998,-0.0499 -0.34923,-0.2744 -0.4989,-0.34924 -0.14967,-0.0748 -0.39913,-0.2245 -0.57374,-0.29934 -0.17462,-0.0748 -0.37418,-0.14967 -0.5488,-0.2245 -0.17461,-0.0748 -0.39912,-0.19956 -0.59868,-0.24945 -0.19956,-0.0499 -0.22451,0 -0.52385,-0.0998 -0.29934,-0.0998 -0.59868,-0.19956 -0.69846,-0.2744 -0.0998,-0.0748 -0.34924,-0.29934 -0.42407,-0.39912 -0.0748,-0.0998 -1.02275,-1.09759 -1.09759,-1.24726 -0.0748,-0.14967 -0.32428,-0.59869 -0.47396,-0.82319 -0.14967,-0.22451 -0.32428,-0.52385 -0.39912,-0.74836 -0.0748,-0.2245 -0.37418,-0.92297 -0.52385,-1.12253 -0.14967,-0.19956 -0.39912,-0.64857 -0.44901,-0.74835 -0.0499,-0.0998 -0.2744,-0.49891 -0.39912,-0.69847 -0.12473,-0.19956 -0.62363,-0.87308 -0.74836,-1.02275 -0.12472,-0.14967 -0.82319,-0.87308 -0.97286,-0.99781 -0.14967,-0.12472 -0.62363,-0.54879 -0.74835,-0.59868 -0.12473,-0.0499 -0.44902,-0.22451 -0.72341,-0.34923 -0.2744,-0.12473 -0.54879,-0.22451 -0.84814,-0.34924 -0.29934,-0.12472 -1.07264,-0.44901 -1.39693,-0.54879 -0.32428,-0.0998 -0.9978,-0.37418 -1.09758,-0.44901 -0.0998,-0.0748 -0.49891,-0.29934 -0.64858,-0.37418 -0.14967,-0.0748 -0.69846,-0.37418 -0.89802,-0.52385 -0.19956,-0.14967 -0.72341,-0.67352 -0.72341,-0.67352 0,0 -1.2722,-1.42187 -1.34704,-1.52165 -0.0748,-0.0998 -0.74836,-1.02275 -0.84814,-1.14748 -0.0998,-0.12472 -0.87308,-1.22231 -0.94791,-1.32209 -0.0748,-0.0998 -0.49891,-0.52385 -0.59869,-0.74836 -0.0998,-0.2245 -0.39912,-0.84813 -0.47395,-0.94791 -0.0748,-0.0998 -0.2744,-0.37418 -0.49891,-0.74836 -0.2245,-0.37418 -0.52385,-0.82319 -0.62363,-0.94791 -0.0998,-0.12473 -0.72341,-0.8232 -0.89802,-0.99781 -0.17462,-0.17462 -0.52385,-0.52385 -0.74836,-0.64857 -0.2245,-0.12473 -0.59868,-0.34924 -0.74835,-0.39913 -0.14967,-0.0499 -0.79825,-0.2245 -0.99781,-0.27439 -0.19956,-0.0499 -0.57374,-0.17462 -0.89802,-0.22451 -0.32429,-0.0499 -0.84814,-0.0748 -1.02276,-0.0998 -0.17461,-0.0249 -0.87308,-0.0499 -1.02275,-0.0499 -0.14967,0 -0.79824,-0.0998 -1.07264,-0.0998 -0.2744,0 -0.89803,-0.0748 -0.89803,-0.0748 0,0 -0.69846,-0.12472 -0.9978,-0.19956 -0.29934,-0.0748 -1.47177,-0.59868 -1.57155,-0.67352 -0.0998,-0.0748 -0.59868,-0.42406 -0.69846,-0.4989 -0.0998,-0.0748 -1.72122,-1.0477 -1.72122,-1.0477 0,0 -0.34923,-0.27439 -0.4989,-0.47396 -0.14967,-0.19956 -0.34923,-0.47395 -0.52385,-0.67351 -0.17462,-0.19957 -0.62363,-0.79825 -0.72341,-0.87309 -0.0998,-0.0748 -2.07045,-2.69407 -2.17023,-2.8188 -0.0998,-0.12472 -0.47396,-0.54879 -0.57374,-0.69846 -0.0998,-0.14967 -0.44901,-0.5488 -0.67352,-0.82319 -0.2245,-0.2744 -0.52384,-0.64858 -0.67351,-0.7733 -0.14968,-0.12473 -1.12254,-0.92297 -1.12254,-0.92297 z"
         style="fill:#ffffff;fill-rule:evenodd;stroke:none;stroke-width:0.28222227px;stroke-linecap:butt;stroke-linejoin:miter;stroke-opacity:1" />
    </g>
    <path
       transform="translate(0,-8.004432)"
       style="fill:#ffffff;fill-rule:evenodd;stroke:none;stroke-width:0.28222227px;stroke-linecap:butt;stroke-linejoin:miter;stroke-opacity:1"
       d="m 133.85572,69.899279 2.84375,2.145284 1.0477,0.698463 0.89802,0.349233 1.34704,0.249451 1.44682,-0.04989 1.59649,-0.199563 1.5466,-0.199562 2.44463,-0.24945 1.89583,-0.04989 1.94572,0.199563 2.54441,0.199559 2.39473,0.149674 2.54441,0.149671 2.64419,-0.04989 2.84374,-0.199562 2.0954,-0.548792 1.19736,-0.648575 0.69847,-0.598684 0.72341,-0.723409 0.54879,-0.823191 0.5488,-0.748355 0.52384,-0.87308 0.47396,-0.748355 0.29934,-0.399121 0.42407,-0.399125 0.37418,-0.224505 0.42407,-0.199562 0.4989,-0.07484 0.62363,0 1.24726,0.02495 0.54879,0.04989 0.47396,0.02495 c 0,0 0.69846,0.149671 0.79824,0.174617 0.0998,0.02495 0.52385,0.199559 0.62363,0.224505 0.0998,0.02495 0.49891,0.224508 0.49891,0.224508 l 0.37418,0.324287 0.34923,0.299342 0.32428,0.449013 0.37418,0.324285 0.34923,0.548795 0.57374,0.648575 0.72341,0.922968 1.17242,1.39693 0.94792,1.097588 0.67352,0.748354 0.74835,0.648575 0.59869,0.598684 0.87308,0.573738 0.82319,0.349233 0.94792,0.174614 0.82318,0.07484 0.74836,-0.09978 0.72341,-0.149671 0.67352,-0.349233 0.89802,-0.573738 0.72342,-0.623629 0.77329,-0.723409 0.52385,-0.573741 1.09759,-0.922969 1.22231,-1.072642 0.92298,-0.723412 1.02275,-0.848134 0.89802,-0.648575 0.64858,-0.623629 0.57373,-0.349231 0.62363,-0.274396 0.69847,-0.249453 0.79824,-0.124726 1.09759,0 1.77111,0.07484 1.37198,-0.224508 1.09759,-0.399121 0.87308,-0.52385 c 0,0 0.4989,-0.523847 0.54879,-0.623629 0.0499,-0.09978 0.29934,-1.022751 0.29934,-1.022751 l 0.17462,-1.222313 0.0748,-1.047697 0.051,-4.3058 0.14111,-3.598334 0.0705,-3.633611 -0.21166,-3.210278 c 0,0 -0.9525,-2.610556 -0.98778,-2.786945 -0.0353,-0.176389 -1.27,-2.54 -1.37583,-2.716389 -0.10584,-0.176389 -1.23473,-1.305278 -1.23473,-1.305278 l -1.19944,-1.093612 c 0,0 -0.42334,-0.529166 -0.45861,-0.670277 -0.0353,-0.141112 -0.49389,-1.340556 -0.49389,-1.340556 l -0.24695,-1.058334 -0.17639,-2.010833 0.28223,-2.751667 -0.24695,-0.881945 -0.59972,-0.811389 -1.37583,-0.881944 -1.19945,-0.352778 -1.27,-0.03528 -1.09361,0.141111 -0.88194,0.705556 -0.74084,0.987778 -1.48166,2.398889 -1.27,2.257778 -0.77612,1.658056 -1.30527,2.575278 -1.72861,2.116667 -1.37584,0.846667 -1.12889,0.3175 -1.16416,0.3175 -1.27,0.388055 -0.88195,0.529167 -1.23472,0.881945 -1.27,2.257778 -1.48167,2.151944 c 0,0 -0.70555,1.023056 -0.81139,1.199445 -0.10583,0.176389 -0.74083,1.375833 -0.91722,1.552222 -0.17639,0.176389 -0.91722,0.881945 -1.30528,1.023056 -0.38805,0.141111 -2.75166,0.211667 -2.75166,0.211667 l -1.65806,0 -1.37583,-0.211667 -1.09362,-0.352778 -1.09361,-0.670278 -0.81139,-0.846666 -0.67028,-0.846667 -1.05833,-0.9525 -1.16417,-0.881945 c 0,0 -0.74083,-0.599722 -0.88194,-0.670278 -0.14111,-0.07055 -0.88195,-0.493889 -0.88195,-0.493889 l -1.19944,-0.493889 c 0,0 -1.23472,-0.246944 -1.44639,-0.246944 -0.21167,0 -1.05833,0 -1.05833,0 L 138.64161,68.5411 Z"
       id="path4530"
       inkscape:connector-curvature="0" />
    <path
       transform="translate(0,-8.004432)"
       style="fill:#ffffff;fill-rule:evenodd;stroke:none;stroke-width:0.28222227px;stroke-linecap:butt;stroke-linejoin:miter;stroke-opacity:1"
       d="m 54.729672,14.1219 1.546601,-0.399122 1.596492,0 c 0,0 1.496709,0.249451 1.796051,0.299341 0.299342,0.04989 1.74616,0.399123 1.99561,0.548794 0.249454,0.149671 1.147479,0.449013 1.546601,0.548794 0.399124,0.09978 1.446821,0.349232 1.696271,0.349232 0.249451,0 1.247259,-0.09978 1.646381,-0.09978 0.399124,0 1.247258,-0.09978 1.796051,-0.199561 0.548795,-0.09978 1.945722,-0.299342 1.945722,-0.299342 0,0 1.496712,0.04989 1.796054,0.04989 0.299342,0 1.496709,0.04989 1.796051,0.09978 0.299342,0.04989 2.045502,0.299342 2.294955,0.399122 0.249451,0.09978 1.247256,0.299342 1.546598,0.399123 0.299342,0.09978 2.843748,0.548793 2.843748,0.548793 0,0 1.29715,0.249452 1.5466,0.249452 0.249454,0 1.596492,0.09978 1.945722,0.09978 0.349233,0 1.247259,-0.199562 1.496713,-0.199562 0.24945,0 1.147476,-0.149671 1.596488,-0.299341 0.449013,-0.149671 1.39693,-0.349233 1.646381,-0.449013 0.24945,-0.09978 0.848134,-0.399123 1.197367,-0.498903 0.349233,-0.09978 1.347039,-0.498904 1.596492,-0.548794 0.249451,-0.04989 1.347038,-0.299342 1.64638,-0.299342 0.299342,0 1.097585,0 1.097585,0 l 2.045505,0.399123 c 0,0 2.145284,0.149671 2.544406,0.149671 0.399124,0 1.596493,0 2.145283,-0.04989 0.54879,-0.04989 2.29496,-0.09978 2.69408,-0.09978 0.39912,0 1.69627,-0.04989 1.99561,-0.149671 0.29934,-0.09978 0.74836,-0.249452 1.19737,-0.399123 0.44901,-0.149671 1.44682,-0.399123 1.79605,-0.399123 0.34923,0 0.94792,-0.04989 1.34704,-0.04989 0.39912,0 1.14748,0.09978 1.64638,0.09978 0.4989,0 1.24726,-0.149671 1.69627,-0.04989 0.44901,0.09978 3.24287,-0.09978 3.24287,-0.09978 0,0 1.89583,-0.349232 2.39474,-0.349232 0.4989,0 2.0455,0 2.39473,0.04989 0.34923,0.04989 1.19737,0.149671 1.5466,0.149671 0.34924,0 1.29715,0.09978 1.49671,0.149671 0.19956,0.04989 1.34704,0.149671 1.69627,0.149671 0.34923,0 0.94792,0.09978 1.49671,0 0.54879,-0.09978 1.89583,-0.249452 2.29496,-0.249452 0.39912,0 1.39692,-0.04989 1.79605,-0.04989 0.39912,0 1.19737,-0.04989 1.64638,-0.04989 0.44901,0 1.79605,0.04989 2.24506,0.149671 0.44902,0.09978 1.44682,0.14967 1.84595,0.299341 0.39912,0.149671 1.59648,0.498904 1.99561,0.648575 0.39912,0.149671 1.94572,1.297148 1.94572,1.297148 l 1.39693,1.396929 15.08613,-4.042316 0,-2.243864 -103.491778,0 -1.696272,0 0,3.392541 z"
       id="path4544"
       inkscape:connector-curvature="0" />
    <path
       transform="translate(0,-8.004432)"
       style="fill:#ffffff;fill-rule:evenodd;stroke:none;stroke-width:0.28222227px;stroke-linecap:butt;stroke-linejoin:miter;stroke-opacity:1"
       d="m 68.24995,21.306106 1.596489,0.149671 3.192981,0.199562 c 0,0 1.696271,0.09978 2.095393,0.199561 0.399124,0.09978 2.095396,0.299342 2.544409,0.399122 0.449012,0.09978 1.796051,0.149671 2.444623,0.199562 0.648575,0.04989 2.394738,0.04989 2.893639,0.09978 0.498904,0.04989 2.095393,0.04989 2.544409,0 0.449012,-0.04989 1.696268,-0.199561 2.045501,-0.249451 0.349233,-0.04989 1.197368,-0.149671 1.646381,-0.149671 0.449012,0 1.746162,-0.09978 2.045504,-0.09978 0.299342,0 2.045502,0.04989 2.344844,0.04989 0.299342,0 2.394735,-0.09978 2.594297,-0.09978 0.199562,0 1.596489,0.04989 2.045502,0.09978 0.449012,0.04989 2.394738,0.349233 2.594298,0.349233 0.19956,0 1.94572,0.249451 2.24506,0.349232 0.29934,0.09978 1.49671,0.598684 1.49671,0.598684 l 0.64858,0.848135 c 0,0 -0.0998,0.449013 -0.24945,0.698465 -0.14967,0.249451 -0.5488,0.997806 -0.74836,1.147477 -0.19956,0.149671 -1.04769,0.748355 -1.29715,0.848135 -0.24945,0.09978 -0.64857,0.498904 -0.89802,0.748355 -0.24945,0.249452 -0.94792,1.097587 -1.14748,1.247258 -0.19956,0.149671 -0.64857,0.997807 -0.64857,0.997807 0,0 -0.14968,0.498903 -0.498906,0.648574 -0.349233,0.149671 -1.097588,0.349232 -1.446821,0.399122 -0.349233,0.04989 -1.047697,0.09978 -1.796051,0.04989 -0.748355,-0.04989 -1.945722,-0.09978 -2.145285,-0.09978 -0.199562,0 -2.245064,0.249452 -2.444626,0.299342 -0.199559,0.04989 -1.097585,0.199561 -1.396927,0.299342 -0.299341,0.09978 -0.748357,0.449013 -1.047699,0.698465 -0.299342,0.249451 -1.147476,0.748354 -1.496709,0.997806 -0.34923,0.249451 -0.798243,0.498903 -1.147476,0.798245 -0.349233,0.299342 -0.898026,0.798245 -0.997806,0.997806 -0.09978,0.199562 -0.449012,1.097588 -0.449012,1.097588 l -0.09978,1.147478 -0.299342,2.644186 -0.449013,1.097587 c 0,0 -0.399121,0.798246 -0.698463,1.147477 -0.299342,0.349233 -0.748355,0.848137 -0.997808,1.097587 -0.249451,0.249451 -0.898026,0.947917 -1.347038,1.297147 -0.449013,0.349234 -1.197368,1.147479 -1.197368,1.147479 0,0 -0.548792,0.498904 -0.947917,0.898026 -0.399121,0.399122 -1.347038,1.297147 -1.596489,1.546601 -0.24945,0.24945 -0.848134,0.748354 -1.247258,0.997805 -0.399122,0.24945 -1.097588,0.648575 -1.596489,0.798246 -0.498904,0.149671 -1.29715,0.399121 -1.646381,0.449013 -0.349233,0.04989 -1.496709,0.349233 -1.895833,0.349233 -0.399122,0 -1.49671,0 -1.895831,0 -0.399125,0 -1.197368,0.04989 -1.64638,0 -0.449013,-0.04989 -1.546601,-0.149671 -1.945725,-0.149671 -0.399122,0 -1.396927,-0.09978 -1.796052,-0.09978 -0.399121,0 -1.097584,0.09978 -1.496709,0.149671 -0.399121,0.04989 -0.848134,0.149671 -1.147476,0.299342 -0.299342,0.149671 -1.496709,1.097588 -1.496709,1.097588 0,0 -0.548796,0.498904 -0.748355,0.648575 -0.199562,0.149671 -0.548795,0.548792 -1.047697,0.648572 -0.498904,0.09978 -0.848137,0.249453 -1.247258,0.299342 -0.399125,0.04989 -1.047697,0.199562 -1.347039,0.199562 -0.299341,0 -1.64638,0.04989 -1.945722,0.04989 -0.299342,0 -0.299342,0.09978 -0.997808,0.149671 -0.698463,0.04989 -1.5466,0.09978 -1.845942,0.04989 -0.299342,-0.04989 -0.798243,-0.149671 -0.798243,-0.149671 l 3.39254,-8.331681 c 0,0 6.136511,-3.941336 6.33607,-4.041118 0.199562,-0.09978 0.748355,-0.498901 1.197368,-0.798246 0.449012,-0.299342 0.997808,-0.798243 0.997808,-0.798243 0,0 0.748354,-1.047697 1.047696,-1.197368 0.299342,-0.149671 1.097588,-0.648575 1.39693,-0.798246 0.299342,-0.14967 0.748355,-0.399121 1.147476,-0.449012 0.399122,-0.04989 1.596492,-0.349233 1.995613,-0.349233 0.399122,0 1.147477,-0.149671 1.546601,-0.149671 0.399122,0 1.297147,-0.04989 1.596489,-0.04989 0.299342,0 1.047697,-0.149671 1.347038,-0.149671 0.299342,0 0.399125,-0.149671 0.898026,-0.249453 0.498904,-0.09978 1.546601,-0.449012 1.546601,-0.449012 0,0 0.299341,-0.149671 0.548792,-0.349233 0.249453,-0.199561 0.648575,-0.698464 0.748355,-0.898026 0.09978,-0.199561 0.399124,-0.848135 0.399124,-0.848135 0,0 0,-0.548794 0,-0.748355 0,-0.199561 -0.399124,-1.396929 -0.399124,-1.396929 0,0 -0.19956,-0.249451 -0.349231,-0.449013 -0.149671,-0.199561 -0.548795,-0.798245 -0.548795,-0.798245 L 74.23679,29.937135 72.091509,28.290754 c 0,0 -0.149671,-0.399122 -0.399124,-0.598684 C 71.442934,27.492509 71.04381,26.993606 70.794359,26.843935 70.544908,26.694264 70.046004,26.295141 69.846442,26.09558 69.646883,25.896019 68.898528,25.347225 68.898528,25.347225 L 67.701161,24.59887 c 0,0 -0.399125,-0.349232 -0.748355,-0.399122 -0.349233,-0.04989 -1.047699,-0.199561 -1.247259,-0.249452 -0.199562,-0.04989 -1.895833,-0.399122 -1.895833,-0.399122 l 1.5466,-2.245065 z"
       id="path4546"
       inkscape:connector-curvature="0" />
    <path
       transform="translate(0,-8.004432)"
       style="fill:#ffffff;fill-rule:evenodd;stroke:none;stroke-width:0.28222227px;stroke-linecap:butt;stroke-linejoin:miter;stroke-opacity:1"
       d="m 1.7638806,15.624413 0,105.692237 6.2794455,0 c 0,0 -1.2700002,-11.64167 -1.3405558,-11.92389 -0.070556,-0.28222 -0.4938889,-4.51555 -0.4938889,-4.51555 0,0 -0.1411111,-2.04612 -0.2822223,-2.39889 -0.1411111,-0.35278 -0.9172223,-2.32834 -0.9172223,-2.610559 0,-0.282223 -0.2822223,-1.270001 -0.2822223,-1.622778 0,-0.352778 0,-2.257779 0.070556,-2.610556 0.070556,-0.352778 0.3527778,-2.328334 0.3527778,-2.328334 0,0 0.2116667,-1.199445 0.2116667,-1.481667 0,-0.282222 0.3527778,-2.328333 0.3527778,-2.681111 0,-0.352778 0.3527779,-3.880556 0.2822223,-4.233334 -0.070556,-0.352778 -0.6350001,-2.328334 -0.6350001,-2.328334 0,0 0.1411111,-2.398889 0.1411111,-2.681111 0,-0.282223 0.070556,-1.905001 0.070556,-2.328334 0,-0.423333 -0.1411111,-1.693334 -0.2116667,-2.116667 -0.070556,-0.423333 -0.4938889,-1.622778 -0.4938889,-2.046111 0,-0.423334 0,-2.328334 0,-2.328334 0,0 0.2822222,-1.622778 0.3527778,-1.905 0.070556,-0.282222 0.3527778,-1.199445 0.4233334,-1.481667 0.070556,-0.282222 0.5644445,-1.622778 0.6350001,-2.046111 0.070556,-0.423334 0.4233333,-2.046112 0.4233333,-2.540001 0,-0.493889 0.070556,-1.763889 0,-2.398889 -0.070556,-0.635 -0.2116667,-2.892781 -0.2116667,-2.892781 l -0.1411111,-1.905 c 0,0 -0.2822222,-3.810001 -0.2822222,-4.092223 0,-0.282222 0.1411111,-2.187223 0.1411111,-2.54 0,-0.352778 0,-1.834445 0,-2.39889 0,-0.564444 0,-2.046111 0,-2.046111 0,0 -0.1411111,-2.54 -0.1411111,-2.892778 0,-0.352778 0.2116667,-2.398889 0.2822222,-2.751667 0.070556,-0.352778 0.3527778,-2.398889 0.3527778,-2.892778 0,-0.493889 0.3527779,-1.905 0.2116667,-2.54 -0.1411111,-0.635 -0.5644445,-1.552223 -0.635,-1.905001 -0.070556,-0.352777 -0.493889,-1.340555 -0.493889,-1.622778 0,-0.282222 -0.1411111,-1.763889 -0.1411111,-1.763889 l 0.070556,-2.046111 0,-1.76389 c 0,0 0.070556,-1.27 0.070556,-1.552222 0,-0.282222 0,-2.046112 0,-2.046112 0,0 0,-0.635 0,-1.058333 0,-0.423334 0.1411111,-1.622778 0.1411111,-1.622778 l 0.070556,-2.116667 c 0,0 -0.2822223,-1.411112 -0.8466668,-1.834445 C 4.5861034,14.001635 3.4572144,13.43719 3.4572144,13.43719 l -1.0583337,0.846667 z"
       id="path4548"
       inkscape:connector-curvature="0" />
    <path
       transform="translate(0,-8.004432)"
       style="fill:#ffffff;fill-rule:evenodd;stroke:none;stroke-width:0.28222227px;stroke-linecap:butt;stroke-linejoin:miter;stroke-opacity:1"
       d="m 13.969281,44.604886 -0.299342,2.195175 0.04989,1.74616 0.249452,1.39693 0.149671,1.297147 0.199561,1.247259 0.149671,1.845942 -0.04989,1.39693 -0.149671,1.845939 -0.04989,1.446821 0.349232,1.247259 1.047697,0.997805 0.997806,1.247259 1.197368,1.297147 c 0,0 1.247258,0.349233 1.446819,0.349233 0.199561,0 0.898026,-0.199562 1.297149,-0.299342 0.399122,-0.09978 1.197367,-0.598684 1.396928,-0.947917 0.199562,-0.349233 0.748355,-1.047696 0.898026,-1.297147 0.149671,-0.249453 0.798245,-0.947917 1.047697,-1.247258 0.249452,-0.299342 0.748355,-1.197368 0.947916,-1.39693 0.199561,-0.199562 1.047697,-1.097588 1.247258,-1.297147 0.199561,-0.199562 0.498903,-0.748355 0.698464,-1.147479 0.199562,-0.399122 0.449014,-1.347039 0.548794,-1.546598 0.09978,-0.199562 0.249452,-1.247259 0.449013,-1.596492 0.199561,-0.349233 0.399122,-1.396929 0.598683,-1.74616 0.199562,-0.349233 0.598683,-1.29715 0.898025,-1.596492 0.299342,-0.299341 0.997808,-0.997805 1.29715,-1.297147 0.299342,-0.299342 1.347039,-1.29715 1.696272,-1.496709 0.34923,-0.199562 1.446818,-0.898026 1.845939,-1.097588 0.399125,-0.199562 1.446821,-0.997808 1.696272,-1.147479 0.249453,-0.149671 1.147479,-0.947914 1.496709,-1.147476 0.349233,-0.199562 0.798246,-0.498904 1.39693,-1.097588 0.598683,-0.598683 1.197367,-1.496709 1.197367,-1.496709 0,0 0.399125,-0.798246 0.548796,-1.297147 0.14967,-0.498904 0.299341,-1.895834 0.399121,-2.145284 0.09978,-0.249451 0.349233,-1.746162 0.399122,-1.995614 0.04989,-0.249451 0.09978,-0.997806 0.399124,-1.247257 0.299342,-0.249452 2.095393,-2.095394 2.095393,-2.095394 0,0 1.895831,-2.045503 1.995613,-2.245064 0.09978,-0.199562 0.449013,-0.548794 0.648573,-0.898026 0.199562,-0.349232 0.349233,-0.698465 0.498904,-1.197368 0.14967,-0.498903 0.14967,-1.396929 0.199562,-1.696271 0.04989,-0.299342 0.149671,-1.147477 0.09978,-1.496709 -0.04989,-0.349233 -0.24945,-0.848136 -0.349233,-1.147478 -0.09978,-0.299342 -0.698463,-0.997806 -1.097585,-1.396929 -0.399124,-0.399122 -1.64638,-1.297148 -2.245066,-1.59649 C 42.905667,20.507861 42.306983,20.008958 41.957753,19.709616 41.60852,19.410274 40.760385,18.86148 40.411152,18.512248 40.061919,18.163016 38.964331,17.16521 38.81466,16.965648 38.66499,16.766087 37.367842,15.71839 37.367842,15.71839 l -9.42927,4.041116 0.648574,3.691884 0.04989,1.396929 0.149671,1.446819 0.199559,1.247258 c 0,0 -0.199559,1.047697 -0.199559,1.247258 0,0.199562 0,0.947917 0,1.147478 0,0.199561 -0.04989,1.347038 -0.04989,1.347038 l 0,1.247258 c 0,0 0,0.947916 0,1.147478 0,0.199561 0,0.698464 -0.149671,0.898026 -0.149671,0.199561 -0.349233,0.598683 -0.548793,0.698464 -0.199562,0.09978 -0.548794,0.399123 -0.748355,0.399123 -0.199561,0 -0.548794,-0.04989 -0.798245,-0.09978 -0.249452,-0.04989 -0.947916,-0.349232 -1.197368,-0.449013 -0.249452,-0.09978 -0.349232,-0.149671 -0.748355,-0.449013 -0.399122,-0.299342 -0.798245,-0.598684 -0.997806,-0.648574 -0.199562,-0.04989 -1.646381,-0.449013 -1.646381,-0.449013 l -1.347038,-0.249452 c 0,0 -0.548794,-0.09978 -0.848136,0.04989 -0.299342,0.149671 -0.848135,0.498903 -1.047697,0.598684 -0.199561,0.09978 -0.648574,0.349232 -0.798245,0.598684 -0.149671,0.249451 -0.598684,1.147477 -0.598684,1.147477 0,0 -0.249451,1.047697 -0.249451,1.247259 0,0.19956 0.04989,0.498901 -0.09978,1.097585 -0.149671,0.598684 -0.199561,1.496709 -0.199561,1.496709 0,0 -0.149671,0.598684 -0.249452,0.798246 -0.09978,0.199563 -0.548793,0.798246 -0.548793,0.798246 l -0.648575,0.548793 c 0,0 -0.598683,0.648575 -0.648574,0.848137 -0.04989,0.199559 -0.548793,0.848134 -0.548793,0.848134 z"
       id="path4550"
       inkscape:connector-curvature="0" />
    <path
       transform="translate(0,-8.004432)"
       style="fill:#ffffff;fill-rule:evenodd;stroke:none;stroke-width:0.28222227px;stroke-linecap:butt;stroke-linejoin:miter;stroke-opacity:1"
       d="m 161.53214,152.00309 5.58772,0.94791 c 0,0 2.34484,0.49891 2.64419,0.5488 0.29934,0.0499 1.99561,0.4989 1.99561,0.4989 l 1.99561,0.89803 1.29715,0.79824 1.19737,1.14748 c 0,0 0.99781,1.49671 1.04769,1.69627 0.0499,0.19956 0.5488,1.34704 0.5488,1.34704 0,0 0.9978,1.44682 1.09758,1.64638 0.0998,0.19956 1.19737,1.19737 1.19737,1.19737 0,0 0.94792,0.79824 1.14748,1.0477 0.19956,0.24945 1.34704,0.9978 1.69627,1.24725 0.34923,0.24946 1.64638,1.14748 1.79605,1.44682 0.14967,0.29934 0.34924,1.39693 0.34924,1.69627 0,0.29935 0,1.19737 0,1.44682 0,0.24946 0.44901,1.49671 0.54879,1.69627 0.0998,0.19957 0.9978,1.89583 1.14748,2.14529 0.14967,0.24945 0.9978,1.5466 1.14747,1.74616 0.14968,0.19956 0.99781,1.34704 1.14748,1.59649 0.14967,0.24945 0.89803,0.99781 1.09759,1.29715 0.19956,0.29934 0.9978,1.39693 0.9978,1.39693 l 0.84814,1.19736 0.69846,1.0477 -12.82181,0 -19.557,-28.3377 z"
       id="path4542"
       inkscape:connector-curvature="0" />
  </g>
</svg>
