<?xml version="1.0" encoding="UTF-8" standalone="no"?>
<!-- Created with Inkscape (http://www.inkscape.org/) -->

<svg
   xmlns:dc="http://purl.org/dc/elements/1.1/"
   xmlns:cc="http://creativecommons.org/ns#"
   xmlns:rdf="http://www.w3.org/1999/02/22-rdf-syntax-ns#"
   xmlns:svg="http://www.w3.org/2000/svg"
   xmlns="http://www.w3.org/2000/svg"
   xmlns:sodipodi="http://sodipodi.sourceforge.net/DTD/sodipodi-0.dtd"
   xmlns:inkscape="http://www.inkscape.org/namespaces/inkscape"
   width="21cm"
   height="29.700001cm"
   viewBox="0 0 210 297"
   version="1.1"
   id="svg8"
   inkscape:version="0.92.5 (2060ec1f9f, 2020-04-08)"
   sodipodi:docname="pw5.svg">
  <defs
     id="defs2" />
  <sodipodi:namedview
     id="base"
     pagecolor="#ffffff"
     bordercolor="#666666"
     borderopacity="1.0"
     inkscape:pageopacity="0.0"
     inkscape:pageshadow="2"
     inkscape:zoom="0.98994949"
     inkscape:cx="279.4342"
     inkscape:cy="620.83437"
     inkscape:document-units="cm"
     inkscape:current-layer="layer2"
     showgrid="false"
     inkscape:window-width="1920"
     inkscape:window-height="1015"
     inkscape:window-x="1920"
     inkscape:window-y="0"
     inkscape:window-maximized="1"
     units="cm"
     inkscape:object-paths="false"
     inkscape:snap-intersection-paths="false"
     inkscape:snap-smooth-nodes="false"
     inkscape:object-nodes="true"
     inkscape:snap-midpoints="true"
     inkscape:snap-global="true"
     inkscape:snap-center="true"
     inkscape:snap-others="false"
     showguides="false" />
  <metadata
     id="metadata5">
    <rdf:RDF>
      <cc:Work
         rdf:about="">
        <dc:format>image/svg+xml</dc:format>
        <dc:type
           rdf:resource="http://purl.org/dc/dcmitype/StillImage" />
        <dc:title />
      </cc:Work>
    </rdf:RDF>
  </metadata>
  <g
     inkscape:label="Drawing"
     inkscape:groupmode="layer"
     id="layer1"
     style="display:inline">
    <g
       id="g1274">
      <g
         id="g1167">
        <path
           style="fill:none;stroke:#000000;stroke-width:0.2;stroke-linecap:butt;stroke-linejoin:miter;stroke-miterlimit:4;stroke-dasharray:none;stroke-opacity:1"
           d="m 137.71819,159.74641 1.59414,-51.65071 0.0591,-3.27036 0.0472,-4.49083 -0.0354,-3.791724 -0.0709,-1.564087 -0.0295,-0.373248 -0.0482,-0.04536 -0.0647,-0.0084 h -0.29232 v 0.278588 h 0.096 l -0.0877,1.432742 -0.24848,3.198535 -0.15869,2.982784 -0.17539,3.04981 -0.27849,7.42413 -1.94603,46.11224"
           id="path995"
           inkscape:connector-curvature="0" />
        <path
           style="fill:none;stroke:#000000;stroke-width:0.2;stroke-linecap:butt;stroke-linejoin:miter;stroke-miterlimit:4;stroke-dasharray:none;stroke-opacity:1"
           d="m 136.08674,158.843 h 1.65933"
           id="path999"
           inkscape:connector-curvature="0" />
        <path
           style="fill:none;stroke:#000000;stroke-width:0.10000001;stroke-linecap:butt;stroke-linejoin:miter;stroke-miterlimit:4;stroke-dasharray:none;stroke-opacity:1"
           d="m 139.99883,131.17041 -0.91456,-0.0335 -0.38003,11.84316 0.73082,0.81273 0.1044,0.0293 0.071,-0.0377 0.0251,-0.0838 z"
           id="path1001"
           inkscape:connector-curvature="0" />
        <path
           style="fill:none;stroke:#000000;stroke-width:0.2;stroke-linecap:butt;stroke-linejoin:miter;stroke-miterlimit:4;stroke-dasharray:none;stroke-opacity:1"
           d="m 139.22415,160.98076 -0.006,-11.40714 c 0,0 -0.0178,-0.0806 -0.0354,-0.11257 -0.0176,-0.0319 -0.0369,-0.056 -0.065,-0.077 -0.0281,-0.021 -0.0589,-0.0356 -0.1004,-0.0444 -0.0415,-0.009 -0.10546,-0.007 -0.14469,0 -0.0392,0.007 -0.0623,0.0154 -0.0886,0.0326 -0.0263,0.0172 -0.0469,0.0392 -0.065,0.0681 -0.0181,0.0289 -0.0297,0.0699 -0.0384,0.10368 -0.009,0.0338 -0.0148,0.0977 -0.0148,0.0977 l 0.0603,11.12702"
           id="path1005"
           inkscape:connector-curvature="0"
           sodipodi:nodetypes="cczzzzzzzcc" />
        <path
           style="fill:none;stroke:#000000;stroke-width:0.10000001;stroke-linecap:butt;stroke-linejoin:miter;stroke-miterlimit:4;stroke-dasharray:none;stroke-opacity:1"
           d="m 131.8473,161.65185 v -0.34757 h -0.7028 v 0.34757"
           id="path1009"
           inkscape:connector-curvature="0" />
        <path
           inkscape:connector-curvature="0"
           style="fill:none;fill-opacity:1;stroke:#000000;stroke-width:0.10000001;stroke-miterlimit:4;stroke-dasharray:none;stroke-opacity:1"
           d="m 132.19576,161.65185 a 0.24804688,0.248832 0 0 1 0.12402,-0.21548 0.24804688,0.248832 0 0 1 0.24805,0 0.24804688,0.248832 0 0 1 0.12402,0.21548"
           id="path1011" />
        <path
           inkscape:connector-curvature="0"
           style="fill:none;fill-opacity:1;stroke:#000000;stroke-width:0.2;stroke-miterlimit:4;stroke-dasharray:none;stroke-opacity:1"
           d="m 128.57316,161.65185 a 0.55333733,0.50244231 0 0 1 0.16207,-0.35527 0.55333733,0.50244231 0 0 1 0.39127,-0.14717 h 0.4175"
           id="path1016" />
        <path
           id="path1031"
           style="fill:none;stroke:#000000;stroke-width:0.2;stroke-linecap:butt;stroke-linejoin:miter;stroke-miterlimit:4;stroke-dasharray:none;stroke-opacity:1"
           d="m 130.11876,161.65174 v -0.50246 H 129.544 c 0,0 0.015,-0.0885 0.0246,-0.13178 0.01,-0.0433 0.0116,-0.0606 0.0328,-0.12768 0.0212,-0.0671 0.0643,-0.18181 0.10264,-0.27182 0.0383,-0.09 0.0769,-0.17204 0.12727,-0.26769 0.0503,-0.0957 0.11767,-0.21643 0.17653,-0.30476 0.0589,-0.0883 0.11204,-0.15578 0.17243,-0.22652 0.0604,-0.0707 0.12403,-0.13558 0.18885,-0.19768 0.0648,-0.0621 0.12097,-0.11219 0.19943,-0.17483 0.0785,-0.0626 0.17792,-0.13675 0.27288,-0.19803 0.095,-0.0613 0.18208,-0.11274 0.29611,-0.16891 0.11403,-0.0562 0.2496,-0.11313 0.389,-0.16308 0.1394,-0.0499 0.29599,-0.0951 0.44706,-0.13396 0.15107,-0.0389 0.2989,-0.0716 0.45867,-0.099 0.15977,-0.0275 0.32597,-0.0493 0.49932,-0.0641 0.17335,-0.0148 0.37345,-0.0208 0.53996,-0.0233 0.16651,-0.002 0.32798,-6.9e-4 0.45867,0.006 0.13069,0.007 0.17888,0.0125 0.32514,0.0291 0.14626,0.0166 0.3607,0.0411 0.55157,0.0757 0.19087,0.0346 0.39573,0.0854 0.59221,0.13396 0.19648,0.0486 0.38785,0.0962 0.58641,0.15726 0.19856,0.061 0.41809,0.13835 0.60382,0.20968 0.18573,0.0713 0.34152,0.13881 0.51093,0.2155 0.16941,0.0767 0.36131,0.16047 0.50512,0.24462 0.14381,0.0841 0.24449,0.15811 0.35997,0.25045 0.11548,0.0923 0.23551,0.20615 0.33094,0.30287 0.0954,0.0967 0.17241,0.18206 0.24386,0.27375 0.0714,0.0917 0.13773,0.18154 0.18579,0.27374 0.0481,0.0922 0.0753,0.17844 0.10451,0.27375 0.0292,0.0953 0.0531,0.19525 0.0697,0.29704 0.0166,0.10179 0.029,0.20777 0.029,0.31232 0,0.10455 -0.0124,0.21052 -0.029,0.31231 -0.0166,0.10179 -0.0405,0.20174 -0.0697,0.29705 -0.0292,0.0953 -0.0564,0.18155 -0.10451,0.27375 -0.0481,0.0922 -0.11434,0.18205 -0.18579,0.27374 -0.0714,0.0917 -0.14843,0.17703 -0.24386,0.27375 -0.0954,0.0967 -0.21546,0.21052 -0.33094,0.30286 -0.11548,0.0923 -0.21616,0.1663 -0.35997,0.25045 -0.14381,0.0841 -0.33571,0.16793 -0.50512,0.24462 -0.16941,0.0767 -0.3252,0.14417 -0.51093,0.2155 -0.18573,0.0713 -0.40526,0.14868 -0.60382,0.20969 -0.19856,0.061 -0.38994,0.1087 -0.58641,0.15725 -0.19647,0.0486 -0.40134,0.0994 -0.59221,0.13397 -0.19087,0.0346 -0.40531,0.0591 -0.55157,0.0757 -0.14626,0.0166 -0.19445,0.0224 -0.32514,0.0291 -0.13069,0.007 -0.29216,0.008 -0.45867,0.006 -0.16651,-0.002 -0.36661,-0.008 -0.53996,-0.0233 -0.17335,-0.0148 -0.33955,-0.0367 -0.49932,-0.0641 -0.15977,-0.0275 -0.3076,-0.0601 -0.45867,-0.099 -0.15107,-0.0389 -0.30766,-0.084 -0.44706,-0.13397 -0.1394,-0.0499 -0.27497,-0.10691 -0.389,-0.16308 -0.11403,-0.0562 -0.20115,-0.10762 -0.29611,-0.1689 -0.095,-0.0613 -0.19442,-0.13539 -0.27288,-0.19803 -0.0785,-0.0626 -0.13461,-0.11273 -0.19943,-0.17483 -0.0648,-0.0621 -0.12846,-0.12694 -0.18885,-0.19768 -0.0604,-0.0707 -0.11357,-0.13819 -0.17243,-0.22652 -0.0589,-0.0883 -0.12619,-0.2091 -0.17653,-0.30477 -0.0503,-0.0957 -0.089,-0.17769 -0.12727,-0.2677 -0.0383,-0.09 -0.0814,-0.20469 -0.10264,-0.27181 -0.0212,-0.0671 -0.0232,-0.0844 -0.0328,-0.12768 -0.01,-0.0433 -0.0246,-0.13179 -0.0246,-0.13179 h 0.57476 V 161.652"
           inkscape:connector-curvature="0"
           sodipodi:nodetypes="ccczzzzzzzzzzzzzzzzzzzzzzzzzzzzzzzzzzzzzzzzzzzzzzzzzzzzzzzzzzzccc" />
        <path
           id="path1033"
           style="fill:none;stroke:#000000;stroke-width:0.2;stroke-linecap:butt;stroke-linejoin:miter;stroke-miterlimit:4;stroke-dasharray:none;stroke-opacity:1"
           d="m 134.10862,164.68567 c 0,0 -0.1654,-0.15558 -0.20469,-0.19617 -0.0393,-0.0406 -0.0299,-0.0274 -0.037,-0.0412 -0.007,-0.0139 -0.007,-0.0239 -0.008,-0.0371 -7.6e-4,-0.0132 -0.002,-0.0247 0.004,-0.0412 0.006,-0.0165 0.0152,-0.0328 0.0328,-0.0536 0.0176,-0.0208 0.045,-0.0419 0.076,-0.0659 0.031,-0.024 0.0667,-0.0428 0.11085,-0.0761 0.0441,-0.0333 0.10297,-0.083 0.1519,-0.12561 0.0489,-0.0426 0.0978,-0.0836 0.14164,-0.12972 0.0439,-0.0461 0.0804,-0.0951 0.12111,-0.1462 0.0408,-0.0511 0.0845,-0.10669 0.12316,-0.16062 0.0386,-0.0539 0.069,-0.10097 0.1088,-0.16268 0.0398,-0.0617 0.0893,-0.13894 0.12932,-0.20799 0.04,-0.0691 0.0729,-0.12844 0.11085,-0.20592 0.0379,-0.0775 0.0847,-0.17399 0.11495,-0.25946 0.0303,-0.0855 0.045,-0.15961 0.0677,-0.25123 0.0227,-0.0916 0.0511,-0.20198 0.0677,-0.29859 0.0166,-0.0966 0.0245,-0.18426 0.0328,-0.28005 0.008,-0.0958 0.0164,-0.19614 0.0164,-0.29444 0,-0.0983 -0.008,-0.19866 -0.0164,-0.29445 -0.008,-0.0958 -0.0162,-0.18345 -0.0328,-0.28006 -0.0166,-0.0966 -0.045,-0.20696 -0.0677,-0.29858 -0.0227,-0.0916 -0.0374,-0.16576 -0.0677,-0.25123 -0.0302,-0.0855 -0.077,-0.18198 -0.11495,-0.25946 -0.0379,-0.0775 -0.0709,-0.13688 -0.11085,-0.20593 -0.04,-0.0691 -0.0895,-0.14627 -0.12932,-0.20798 -0.0398,-0.0617 -0.0701,-0.10875 -0.1088,-0.16268 -0.0387,-0.0539 -0.0824,-0.1095 -0.12316,-0.16062 -0.0408,-0.0511 -0.0772,-0.10009 -0.12111,-0.1462 -0.0439,-0.0461 -0.0927,-0.0871 -0.14164,-0.12973 -0.0489,-0.0426 -0.10779,-0.0923 -0.1519,-0.12562 -0.0441,-0.0333 -0.0799,-0.0522 -0.11085,-0.0762 -0.031,-0.024 -0.0584,-0.0451 -0.076,-0.0659 -0.0176,-0.0208 -0.0273,-0.037 -0.0328,-0.0535 -0.006,-0.0165 -0.005,-0.028 -0.004,-0.0412 7.6e-4,-0.0132 9.3e-4,-0.0232 0.008,-0.0371 0.007,-0.0139 -0.002,-6.2e-4 0.037,-0.0412 0.0393,-0.0406 0.20469,-0.19616 0.20469,-0.19616"
           inkscape:connector-curvature="0"
           sodipodi:nodetypes="czzzzzzzzzzzzzzzzzzzzzzzzzzzzzzzzzzzzzc" />
        <path
           inkscape:connector-curvature="0"
           id="path1035"
           d="m 137.71819,163.55733 1.59414,51.65071 0.0591,3.27036 0.0472,4.49083 -0.0354,3.79173 -0.0709,1.56408 -0.0295,0.37325 -0.0482,0.0453 -0.0647,0.008 h -0.29232 V 228.473 h 0.096 l -0.0877,-1.43274 -0.24848,-3.19853 -0.15869,-2.98279 -0.17539,-3.04981 -0.27849,-7.42413 -1.94603,-46.11225"
           style="fill:none;stroke:#000000;stroke-width:0.2;stroke-linecap:butt;stroke-linejoin:miter;stroke-miterlimit:4;stroke-dasharray:none;stroke-opacity:1" />
        <path
           inkscape:connector-curvature="0"
           id="path1037"
           d="m 136.08674,164.46074 h 1.65933"
           style="fill:none;stroke:#000000;stroke-width:0.2;stroke-linecap:butt;stroke-linejoin:miter;stroke-miterlimit:4;stroke-dasharray:none;stroke-opacity:1" />
        <path
           inkscape:connector-curvature="0"
           id="path1039"
           d="m 139.99883,192.13333 -0.91456,0.0335 -0.38003,-11.84316 0.73082,-0.81273 0.1044,-0.0293 0.071,0.0377 0.0251,0.0838 z"
           style="fill:none;stroke:#000000;stroke-width:0.10000001;stroke-linecap:butt;stroke-linejoin:miter;stroke-miterlimit:4;stroke-dasharray:none;stroke-opacity:1" />
        <path
           id="path1041"
           style="fill:none;stroke:#000000;stroke-width:0.2;stroke-linecap:butt;stroke-linejoin:miter;stroke-miterlimit:4;stroke-dasharray:none;stroke-opacity:1"
           d="m 138.7999,162.34136 7.30437,-0.31656 c 0,0 0.14626,-0.0146 0.23015,-0.0312 0.0839,-0.0166 0.195,-0.0467 0.27167,-0.0711 0.0767,-0.0244 0.14005,-0.0484 0.18898,-0.0711 0.0489,-0.0227 0.0715,-0.0263 0.10631,-0.0592 0.0348,-0.0329 0.0886,-0.085 0.0886,-0.14033 0,-0.0553 -0.0538,-0.10738 -0.0886,-0.14033 -0.0348,-0.0329 -0.0574,-0.0365 -0.10631,-0.0592 -0.0489,-0.0227 -0.11231,-0.0467 -0.18898,-0.0711 -0.0767,-0.0244 -0.18778,-0.0545 -0.27167,-0.0711 -0.0839,-0.0166 -0.23015,-0.0312 -0.23015,-0.0312 l -7.30437,-0.31656"
           inkscape:connector-curvature="0"
           sodipodi:nodetypes="cczzzzzzzzzcc" />
        <path
           inkscape:connector-curvature="0"
           id="path1043"
           d="m 139.22415,162.32297 -0.006,11.40715 c 0,0 -0.0178,0.0806 -0.0354,0.11257 -0.0176,0.0319 -0.0369,0.056 -0.065,0.077 -0.0281,0.021 -0.0589,0.0356 -0.1004,0.0444 -0.0415,0.009 -0.10546,0.007 -0.14469,0 -0.0392,-0.007 -0.0623,-0.0154 -0.0886,-0.0326 -0.0263,-0.0172 -0.0469,-0.0392 -0.065,-0.0681 -0.0181,-0.0289 -0.0297,-0.0699 -0.0384,-0.10368 -0.009,-0.0338 -0.0148,-0.0978 -0.0148,-0.0978 l 0.0603,-11.12701"
           style="fill:none;stroke:#000000;stroke-width:0.2;stroke-linecap:butt;stroke-linejoin:miter;stroke-miterlimit:4;stroke-dasharray:none;stroke-opacity:1"
           sodipodi:nodetypes="cczzzzzzzcc" />
        <path
           inkscape:connector-curvature="0"
           id="path1045"
           d="m 131.8473,161.65188 v 0.34759 h -0.7028 v -0.34759"
           style="fill:none;stroke:#000000;stroke-width:0.10000001;stroke-linecap:butt;stroke-linejoin:miter;stroke-miterlimit:4;stroke-dasharray:none;stroke-opacity:1" />
        <path
           inkscape:connector-curvature="0"
           id="path1047"
           d="m 132.19576,161.65188 a 0.24804688,0.248832 0 0 0 0.12402,0.2155 0.24804688,0.248832 0 0 0 0.24805,0 0.24804688,0.248832 0 0 0 0.12402,-0.2155"
           style="fill:none;fill-opacity:1;stroke:#000000;stroke-width:0.10000001;stroke-miterlimit:4;stroke-dasharray:none;stroke-opacity:1" />
        <path
           inkscape:connector-curvature="0"
           id="path1049"
           d="m 128.57316,161.65188 a 0.55333733,0.50244231 0 0 0 0.16207,0.35528 0.55333733,0.50244231 0 0 0 0.39127,0.14717 h 0.4175"
           style="fill:none;fill-opacity:1;stroke:#000000;stroke-width:0.2;stroke-miterlimit:4;stroke-dasharray:none;stroke-opacity:1" />
      </g>
      <g
         id="g1196">
        <path
           style="fill:none;stroke:#000000;stroke-width:0.2;stroke-linecap:butt;stroke-linejoin:miter;stroke-miterlimit:4;stroke-dasharray:none;stroke-opacity:1"
           d="m 122.22899,77.32716 0.95215,-0.593006 -1.73425,-8.58529 h -2.82891 c 0,0 -0.45063,0.04183 -0.63049,0.06943 -0.17987,0.0276 -0.30808,0.05583 -0.44885,0.08859 -0.14078,0.03276 -0.26728,0.05988 -0.39569,0.106307 -0.12842,0.04643 -0.27365,0.119543 -0.37207,0.17127 -0.0984,0.05173 -0.15371,0.08286 -0.22136,0.131604 -0.0677,0.04875 -0.12628,0.09871 -0.18375,0.158692 -0.0575,0.05998 -0.11871,0.132547 -0.15869,0.200451 -0.04,0.0679 -0.0485,0.114217 -0.0835,0.200453 -0.035,0.08624 -0.12528,0.317382 -0.12528,0.317382 l -2.6017,7.38332 c 0,0 -0.0593,0.183043 -0.0919,0.242213 -0.0326,0.05917 -0.0531,0.08679 -0.0877,0.116932 -0.0346,0.03014 -0.0672,0.04908 -0.11275,0.06264 -0.0456,0.01356 -0.1559,0.01114 -0.1559,0.01114 l -1.5001,-0.02363 -4.67745,-0.04725 -7.807573,-0.118117 -4.216797,-0.07087 -1.441034,-0.07087 -1.830824,-0.08268 -1.55915,-0.153553 -2.137929,-0.248047 -6.047618,-0.519719 h -0.501999 c 0,0 -0.470329,0.0057 -0.826823,0.02363 -0.356494,0.01793 -0.858051,0.04775 -1.311106,0.09449 -0.453055,0.04674 -0.989308,0.125023 -1.405599,0.188989 -0.416291,0.06397 -0.652018,0.100503 -1.092589,0.188987 -0.440571,0.08848 -1.14897,0.258606 -1.547339,0.354354 -0.398369,0.09575 -0.542185,0.130338 -0.844539,0.212611 -0.302354,0.08227 -0.651614,0.186961 -0.968565,0.283482 -0.316951,0.09652 -0.635871,0.200781 -0.933128,0.295294 -0.297257,0.09451 -0.578797,0.179948 -0.850447,0.271671 -0.27165,0.09172 -0.53651,0.18677 -0.779576,0.277575 -0.243066,0.0908 -0.480285,0.189135 -0.679175,0.265766 -0.19889,0.07663 -0.309022,0.116281 -0.513813,0.194892 -0.204791,0.07861 -0.451576,0.170799 -0.714611,0.277577 -0.263035,0.106778 -0.596326,0.246331 -0.862451,0.3654 -0.266125,0.119069 -0.53032,0.250656 -0.734992,0.346615 -0.204672,0.09596 -0.32011,0.146953 -0.492778,0.229685 -0.172668,0.08273 -0.316012,0.148682 -0.542891,0.267268 -0.226879,0.118586 -0.557579,0.304686 -0.814338,0.451017 -0.256759,0.146331 -0.532678,0.301684 -0.726637,0.425961 -0.193959,0.124277 -0.288757,0.198459 -0.442666,0.30903 -0.153909,0.110572 -0.362896,0.255746 -0.480251,0.354968 -0.117355,0.09922 -0.160082,0.148846 -0.23386,0.22551 -0.07378,0.07666 -0.150722,0.162428 -0.208804,0.23386 -0.05808,0.07143 -0.105738,0.117324 -0.141989,0.1921 -0.03625,0.07478 -0.07306,0.174816 -0.06835,0.250566 0.0047,0.07575 0.03412,0.119282 0.07446,0.180936 0.04034,0.06165 0.08339,0.107522 0.171271,0.177176 0.08788,0.06965 0.178525,0.118064 0.366164,0.218518 0.187639,0.100454 0.529332,0.258267 0.767764,0.366164 0.238432,0.107897 0.45556,0.200131 0.661459,0.283482 0.205899,0.08335 0.298117,0.125735 0.57287,0.218518 0.274753,0.09278 0.765678,0.228734 1.080776,0.318917 0.315098,0.09018 0.540323,0.155555 0.809105,0.224424 0.268782,0.06887 0.55863,0.142842 0.803199,0.188988 0.244569,0.04615 0.496094,0.07087 0.661459,0.09449 0.165365,0.02362 0.330729,0.04725 0.330729,0.04725 l 0.112211,0.147647 2.917504,0.342541 0.135835,-0.112212 c 0,0 0.454755,0.04426 0.732329,0.07087 0.277574,0.02661 0.520762,0.05876 0.933129,0.08859 0.412367,0.02983 1.083552,0.06538 1.541434,0.07678 0.457882,0.0114 0.70376,0.0041 1.204799,0 0.501039,-0.0041 1.184034,-0.0091 1.801293,-0.02953 0.617259,-0.02039 1.397807,-0.05812 1.901693,-0.09449 0.503886,-0.03637 0.723048,-0.05314 1.122117,-0.106306 0.399069,-0.05316 0.886952,-0.142941 1.269763,-0.218518 0.382811,-0.07558 0.817611,-0.169752 1.027534,-0.229148 0.209923,-0.0594 0.185127,-0.06881 0.242213,-0.08352 0.05709,-0.01471 0.06877,-0.01435 0.09605,-0.01671 0.02728,-0.0024 0.0447,-0.0049 0.06682,0 0.02212,0.0049 0.02641,0.0051 0.06264,0.02923 0.03623,0.02415 0.100349,0.08747 0.141987,0.129459 0.04164,0.04199 0.07344,0.07043 0.108578,0.121106 0.03514,0.05067 0.09605,0.183748 0.09605,0.183748 l 1.36591,-0.04931 c 0,0 2.68e-4,-0.08744 0.01092,-0.12325 0.01065,-0.0358 0.02504,-0.06328 0.04725,-0.08859 0.02221,-0.02531 0.04901,-0.04536 0.08268,-0.05906 0.03367,-0.0137 0.07075,-0.01828 0.115165,-0.01772 0.04442,5.65e-4 0.105882,0.0073 0.147647,0.02658 0.04176,0.01925 0.07573,0.05048 0.09745,0.07973 0.02172,0.02925 0.02769,0.05829 0.03543,0.08563 0.0077,0.02734 0.01235,0.07686 0.01235,0.07686 l 1.485098,-0.05361 c 0,0 0.07577,-0.09038 0.1562,-0.24767 0.08042,-0.15729 0.18031,-0.454666 0.286435,-0.711658 0.106125,-0.256992 0.274874,-0.638576 0.3514,-0.829776 0.07653,-0.1912 0.08014,-0.223593 0.118117,-0.313011 0.03798,-0.08942 0.06003,-0.15178 0.106306,-0.224424 0.04627,-0.07264 0.110173,-0.14064 0.171271,-0.206706 0.0611,-0.06607 0.123125,-0.121938 0.194894,-0.188988 0.07177,-0.06705 0.138115,-0.142883 0.236235,-0.212611 0.09812,-0.06973 0.175537,-0.0957 0.354352,-0.194894 0.178815,-0.09919 0.459086,-0.267295 0.717799,-0.401591 0.258713,-0.134296 0.553996,-0.271418 0.835217,-0.400905 0.281221,-0.129487 0.594131,-0.267779 0.851922,-0.375848 0.257791,-0.108069 0.448276,-0.18217 0.69323,-0.275621 0.244954,-0.09345 0.542471,-0.206878 0.776752,-0.283974 0.234281,-0.0771 0.450704,-0.137342 0.626413,-0.183748 0.175709,-0.04641 0.271459,-0.06791 0.425961,-0.100226 0.154502,-0.03232 0.299346,-0.06154 0.501131,-0.09187 0.201785,-0.03033 0.709934,-0.08352 0.709934,-0.08352 l 6.280837,-0.141987 8.40228,-0.158691 5.82147,-0.05011 c 0,0 0.74879,-0.03304 0.95215,-0.03341 0.20336,-3.72e-4 0.18357,-3.42e-4 0.26727,0.0084 0.0837,0.0087 0.13677,0.01443 0.23386,0.04176 0.0971,0.02733 0.12725,0.04503 0.34244,0.133635 0.21519,0.08861 0.94379,0.409257 0.94379,0.409257 l 0.68488,0.283974 0.77675,0.325679 0.9438,0.392552 1.14329,-0.118152 c 0,0 0.0635,-0.114212 0.11221,-0.253953 0.0487,-0.139741 0.0994,-0.378973 0.15356,-0.590588 0.0542,-0.211615 0.13641,-0.427967 0.17127,-0.679176 0.0349,-0.251209 0.0218,-0.549801 0.0236,-0.820917 0.002,-0.271116 -0.0123,-0.805383 -0.0123,-0.805383"
           id="path1350"
           inkscape:connector-curvature="0"
           sodipodi:nodetypes="cccczzzzzzzzcczzzccccccccccczzzzzzzzzzzzzzzzzzzzzzzzzzzzzzzzzzzcccczzzzzzzzzzzzzzzcczzzzzzzcczzzzzzzzzzzzzzzzzcccczzzzccccczzzzc" />
        <path
           style="fill:none;stroke:#000000;stroke-width:0.2;stroke-linecap:butt;stroke-linejoin:miter;stroke-miterlimit:4;stroke-dasharray:none;stroke-opacity:1"
           d="m 119.69689,68.148863 v 9.654108"
           id="path1354"
           inkscape:connector-curvature="0"
           sodipodi:nodetypes="cc" />
        <path
           style="fill:none;stroke:#000000;stroke-width:0.1;stroke-linecap:butt;stroke-linejoin:miter;stroke-miterlimit:4;stroke-dasharray:none;stroke-opacity:1"
           d="m 85.804929,84.082928 2.238328,-1.068964 0.277577,-0.124023 0.265766,-0.08268 0.289388,-0.04134"
           id="path1360"
           inkscape:connector-curvature="0" />
        <path
           style="fill:none;fill-opacity:1;stroke:#000000;stroke-width:0.2;stroke-miterlimit:4;stroke-dasharray:none;stroke-opacity:1"
           d="m 88.014959,85.154114 a 1.5150598,1.5150598 0 0 1 -0.707764,1.342388 1.5150598,1.5150598 0 0 1 -1.516531,0.05538 1.5150598,1.5150598 0 0 1 -0.803794,-1.287187"
           id="path1364"
           inkscape:connector-curvature="0" />
        <path
           sodipodi:nodetypes="zzzzzzczzzzzz"
           style="fill:none;stroke:#000000;stroke-width:0.2;stroke-linecap:butt;stroke-linejoin:miter;stroke-miterlimit:4;stroke-dasharray:none;stroke-opacity:1"
           d="m 119.66931,77.83451 c -0.009,-0.06703 0.009,-0.06976 0.12395,-0.141743 0.11479,-0.07198 0.33594,-0.110103 0.6024,-0.165364 0.26646,-0.05526 0.69223,-0.109353 0.99809,-0.14174 0.30586,-0.03239 0.51604,-0.05075 0.83524,-0.0585 0.3192,-0.0077 0.68282,-0.0064 1.07826,0.02307 0.39544,0.02949 1.29016,0.165364 1.29016,0.165364 0,0 -0.83473,0.236943 -1.24291,0.307101 -0.40818,0.07016 -0.83457,0.08927 -1.19889,0.118118 -0.36432,0.02884 -0.68197,0.04996 -0.98628,0.05906 -0.30431,0.0091 -0.61902,0.01082 -0.83864,0 -0.21962,-0.01082 -0.36845,-0.0089 -0.47837,-0.04725 -0.10992,-0.03836 -0.17359,-0.05109 -0.18301,-0.118116 z"
           id="path1379"
           inkscape:connector-curvature="0" />
        <path
           style="fill:none;stroke:#000000;stroke-width:0.1;stroke-linecap:butt;stroke-linejoin:miter;stroke-miterlimit:4;stroke-dasharray:none;stroke-opacity:1"
           d="m 123.30725,77.350232 0.0473,0.472464"
           id="path1383"
           inkscape:connector-curvature="0" />
        <path
           style="fill:none;stroke:#000000;stroke-width:0.1;stroke-linecap:butt;stroke-linejoin:miter;stroke-miterlimit:4;stroke-dasharray:none;stroke-opacity:1"
           d="m 113.65967,77.393984 c 0,0 0.39563,0.137708 0.66817,0.217157 0.27254,0.07945 0.57793,0.167001 0.96886,0.250563 0.39093,0.08356 0.9408,0.17038 1.3781,0.233862 0.4373,0.06348 0.81155,0.102816 1.24448,0.150339 0.43293,0.04752 1.35305,0.133633 1.35305,0.133633"
           id="path1385"
           inkscape:connector-curvature="0"
           sodipodi:nodetypes="czzzzc" />
        <path
           style="fill:none;stroke:#000000;stroke-width:0.1;stroke-linecap:butt;stroke-linejoin:miter;stroke-miterlimit:4;stroke-dasharray:none;stroke-opacity:1"
           d="m 119.69689,77.64455 c 0,0 -0.62534,0.08671 -1.13032,0.129458 -0.50498,0.04275 -1.90012,0.104401 -1.90012,0.104401"
           id="path1387"
           inkscape:connector-curvature="0"
           sodipodi:nodetypes="czc" />
        <path
           style="fill:none;stroke:#000000;stroke-width:0.1;stroke-linecap:butt;stroke-linejoin:miter;stroke-miterlimit:4;stroke-dasharray:none;stroke-opacity:1"
           d="m 118.74614,79.365095 c 0,0 0.89979,-0.167543 1.30294,-0.208804 0.40315,-0.04126 0.71648,-0.05042 1.11084,-0.05011 0.39436,3.05e-4 0.94379,0.04481 1.25283,0.05846 0.30904,0.01365 0.60135,0.02506 0.60135,0.02506"
           id="path1391"
           inkscape:connector-curvature="0"
           sodipodi:nodetypes="czzzc" />
        <path
           style="fill:none;stroke:#000000;stroke-width:0.1;stroke-linecap:butt;stroke-linejoin:miter;stroke-miterlimit:4;stroke-dasharray:none;stroke-opacity:1"
           d="m 120.24118,68.657612 h 0.91874"
           id="path1393"
           inkscape:connector-curvature="0" />
        <path
           style="fill:none;stroke:#000000;stroke-width:0.1;stroke-linecap:butt;stroke-linejoin:miter;stroke-miterlimit:4;stroke-dasharray:none;stroke-opacity:1"
           d="m 120.12425,71.38877 h 1.5368"
           id="path1395"
           inkscape:connector-curvature="0" />
        <path
           style="fill:none;stroke:#000000;stroke-width:0.1;stroke-linecap:butt;stroke-linejoin:miter;stroke-miterlimit:4;stroke-dasharray:none;stroke-opacity:1"
           d="m 120.36646,74.362145 h 1.88759"
           id="path1397"
           inkscape:connector-curvature="0" />
        <path
           style="fill:none;stroke:#000000;stroke-width:0.1;stroke-linecap:butt;stroke-linejoin:miter;stroke-miterlimit:4;stroke-dasharray:none;stroke-opacity:1"
           d="m 121.33531,68.665962 0.32574,1.779013"
           id="path1399"
           inkscape:connector-curvature="0" />
        <path
           style="fill:none;stroke:#000000;stroke-width:0.1;stroke-linecap:butt;stroke-linejoin:miter;stroke-miterlimit:4;stroke-dasharray:none;stroke-opacity:1"
           d="m 121.88656,71.397123 0.35914,2.071339"
           id="path1401"
           inkscape:connector-curvature="0" />
        <path
           style="fill:none;stroke:#000000;stroke-width:0.1;stroke-linecap:butt;stroke-linejoin:miter;stroke-miterlimit:4;stroke-dasharray:none;stroke-opacity:1"
           d="m 122.49627,74.520836 0.30903,1.795717"
           id="path1403"
           inkscape:connector-curvature="0" />
        <path
           style="fill:none;stroke:#000000;stroke-width:0.1;stroke-linecap:butt;stroke-linejoin:miter;stroke-miterlimit:4;stroke-dasharray:none;stroke-opacity:1"
           d="m 69.62873,84.956998 c 0,0 0.829013,0.0183 1.257951,0.06497 0.428938,0.04667 1.311106,0.218516 1.311106,0.218516"
           id="path1405"
           inkscape:connector-curvature="0"
           sodipodi:nodetypes="czc" />
        <path
           style="fill:#ffffff;fill-opacity:1;stroke:#000000;stroke-width:0.2;stroke-linecap:butt;stroke-linejoin:miter;stroke-miterlimit:4;stroke-dasharray:none;stroke-opacity:1"
           d="m 89.750057,78.531404 -3.100586,-2.811198 c 0,0 -0.757697,-0.115499 -1.122116,-0.153554 -0.364419,-0.03805 -0.709196,-0.06995 -1.063059,-0.07678 -0.353863,-0.0068 -0.734124,0.01163 -1.057153,0.03543 -0.323029,0.0238 -0.649833,0.06565 -0.879975,0.100399 -0.230142,0.03474 -0.375452,0.05317 -0.501999,0.0945 -0.126547,0.04133 -0.189914,0.08738 -0.259858,0.124023 -0.06994,0.03664 -0.0868,0.037 -0.161282,0.0923 -0.07448,0.0553 -0.269357,0.254741 -0.269357,0.254741 l -1.293878,2.15705 c 0,0 -0.0401,0.07777 -0.0502,0.10926 -0.0101,0.03149 -0.01217,0.0496 -0.01476,0.07678 -0.0026,0.02718 -0.0067,0.06034 0,0.08564 0.0067,0.0253 0.01943,0.04591 0.03544,0.06201 0.01601,0.0161 0.0045,0.0081 0.05611,0.03248 0.05158,0.02439 0.148283,0.06593 0.25986,0.09745 0.111577,0.03152 0.242212,0.05014 0.410459,0.07973 0.168247,0.02959 0.337635,0.06597 0.599445,0.0945 0.26181,0.02853 0.591967,0.04668 0.971519,0.05906 0.379552,0.01239 0.961164,0.0078 1.305197,0.0059 0.344033,-0.0019 0.539859,-0.0051 0.758926,-0.01175 0.219067,-0.0066 0.352765,-0.01024 0.555421,-0.02506 0.202656,-0.01482 0.415457,-0.03863 0.659821,-0.06682 0.244364,-0.0282 0.551249,-0.07024 0.805984,-0.104402 0.254735,-0.03417 0.501847,-0.06655 0.722463,-0.100227 0.220616,-0.03368 0.393935,-0.06881 0.601356,-0.100227 0.207421,-0.03142 0.420211,-0.06717 0.643118,-0.0877 0.222907,-0.02053 0.461601,-0.02948 0.693231,-0.03341 0.23163,-0.0039 0.695873,0.0099 0.695873,0.0099 z"
           id="path1407"
           inkscape:connector-curvature="0"
           sodipodi:nodetypes="cczzzzzzzcczzzzzzzzzzzzzzzzzzc" />
        <path
           style="fill:none;stroke:#000000;stroke-width:0.2;stroke-linecap:butt;stroke-linejoin:miter;stroke-miterlimit:4;stroke-dasharray:none;stroke-opacity:1"
           d="m 87.218045,76.235715 -1.383586,0.05736 0.986282,1.080776 1.524212,-0.116409"
           id="path1409"
           inkscape:connector-curvature="0" />
        <path
           style="fill:none;stroke:#000000;stroke-width:0.2;stroke-linecap:butt;stroke-linejoin:miter;stroke-miterlimit:4;stroke-dasharray:none;stroke-opacity:1"
           d="m 86.649469,75.720206 -0.206703,0.265763 -0.791388,-0.0059 -0.96266,-0.135834 0.363167,-0.31192"
           id="path1411"
           inkscape:connector-curvature="0" />
        <path
           style="fill:none;stroke:#000000;stroke-width:0.1;stroke-linecap:butt;stroke-linejoin:miter;stroke-miterlimit:4;stroke-dasharray:none;stroke-opacity:1"
           d="m 68.424982,79.849968 0.984874,-0.317828 0.835219,-0.208804 0.968851,-0.183748 0.517834,-0.09187 c 0,0 0.05578,0.0026 0.0877,0.01254 0.03192,0.01 0.072,0.02066 0.100227,0.05011 0.02823,0.02945 0.05429,0.121107 0.05429,0.121107 l 0.195462,1.692297"
           id="path1413"
           inkscape:connector-curvature="0"
           sodipodi:nodetypes="ccccczzcc" />
        <path
           style="fill:none;fill-opacity:1;stroke:#000000;stroke-width:0.2;stroke-miterlimit:4;stroke-dasharray:none;stroke-opacity:1"
           d="m 122.893,80.957145 a 0.39988643,0.39988643 0 0 1 -0.35264,0.423153 0.39988643,0.39988643 0 0 1 -0.44068,-0.330482"
           id="path1415"
           inkscape:connector-curvature="0" />
        <path
           style="fill:none;stroke:#000000;stroke-width:0.2;stroke-linecap:butt;stroke-linejoin:miter;stroke-miterlimit:4;stroke-dasharray:none;stroke-opacity:1"
           d="m 67.108955,79.741206 3.633073,1.298501 c 0,0 0.185325,0.06043 0.334087,0.09187 0.148762,0.03144 0.317959,0.06159 0.559596,0.08352 0.241637,0.02193 0.889506,0.02923 0.889506,0.02923 l 5.955101,-0.446841 c 0,0 0.32885,-0.04607 0.455192,-0.09187 0.126342,-0.0458 0.221201,-0.09739 0.300678,-0.162867 0.07948,-0.06548 0.123525,-0.135415 0.175397,-0.212982 0.05187,-0.07757 0.102732,-0.161769 0.133633,-0.250565 0.0309,-0.0888 0.05011,-0.275622 0.05011,-0.275622 l 0.445939,-3.685619"
           id="path1418"
           inkscape:connector-curvature="0"
           sodipodi:nodetypes="cczzcczzzzcc" />
        <path
           style="fill:none;stroke:#000000;stroke-width:0.2;stroke-linecap:butt;stroke-linejoin:miter;stroke-miterlimit:4;stroke-dasharray:none;stroke-opacity:1"
           d="m 67.542496,79.534553 3.416689,1.221179 c 0,0 0.351897,0.09057 0.572124,0.121108 0.220227,0.03053 0.498128,0.04385 0.74752,0.05011 0.249392,0.0063 0.747519,-0.01252 0.747519,-0.01252 l 5.403855,-0.45937 c 0,0 0.328349,-0.03037 0.430139,-0.06682 0.10179,-0.03646 0.129718,-0.05491 0.183748,-0.108577 0.05403,-0.05367 0.08941,-0.133381 0.12528,-0.208804 0.03587,-0.07542 0.0877,-0.242213 0.0877,-0.242213 l 0.427445,-3.687181"
           id="path1420"
           inkscape:connector-curvature="0"
           sodipodi:nodetypes="cczzcczzzcc" />
        <path
           id="path1430"
           style="fill:none;stroke:#000000;stroke-width:0.1;stroke-linecap:butt;stroke-linejoin:miter;stroke-miterlimit:4;stroke-dasharray:none;stroke-opacity:1"
           d="m 76.825909,78.655168 -3.573055,0.242141 0.07886,1.163717 3.573056,-0.242141"
           inkscape:connector-curvature="0"
           sodipodi:nodetypes="cccc" />
        <path
           style="fill:none;stroke:#000000;stroke-width:0.1;stroke-linecap:butt;stroke-linejoin:miter;stroke-miterlimit:4;stroke-dasharray:none;stroke-opacity:1"
           d="m 75.003029,78.778702 0.07886,1.163717"
           id="path1432"
           inkscape:connector-curvature="0" />
        <path
           style="fill:none;stroke:#000000;stroke-width:0.2;stroke-linecap:butt;stroke-linejoin:miter;stroke-miterlimit:4;stroke-dasharray:none;stroke-opacity:1"
           d="m 65.780792,84.151051 0.552458,0.52837 -0.0016,-0.36616"
           id="path1435"
           inkscape:connector-curvature="0" />
        <path
           style="fill:none;fill-opacity:1;stroke:#000000;stroke-width:0.2;stroke-miterlimit:4;stroke-dasharray:none;stroke-opacity:1"
           d="M 72.09155,85.42727 A 1.270129,1.270129 0 0 1 71.336851,86.451799 1.270129,1.270129 0 0 1 70.07254,86.307761 1.270129,1.270129 0 0 1 69.567632,85.13973"
           id="path1437"
           inkscape:connector-curvature="0" />
      </g>
      <g
         id="g1148">
        <path
           style="display:inline;fill:none;stroke:#000000;stroke-width:0.2;stroke-linecap:butt;stroke-linejoin:miter;stroke-miterlimit:4;stroke-dasharray:none;stroke-opacity:1"
           d="m 84.251685,161.65165 v -0.51264 c 0,0 0.01159,-0.0769 0.02953,-0.11221 0.01794,-0.0353 0.0455,-0.0694 0.07678,-0.0945 0.03128,-0.0251 0.07098,-0.0436 0.106307,-0.0531 0.03533,-0.009 0.100399,-0.006 0.100399,-0.006 l 1.547341,0.10631 c 0,0 0.0663,0.0133 0.09449,0.0295 0.02819,0.0162 0.05225,0.0368 0.07087,0.065 0.01862,0.0282 0.03544,0.1004 0.03544,0.1004 v 0.47722"
           id="path1511"
           inkscape:connector-curvature="0"
           sodipodi:nodetypes="cczzzcczzcc" />
        <path
           style="display:inline;fill:none;stroke:#000000;stroke-width:0.2;stroke-linecap:butt;stroke-linejoin:miter;stroke-miterlimit:4;stroke-dasharray:none;stroke-opacity:1"
           d="m 120.19024,161.27557 v -0.54551 l -5.724,-0.0251 -6.94066,-0.10023 -6.55646,-0.10858 c 0,0 -1.275055,-0.004 -2.037935,-0.0167 -0.76288,-0.0132 -1.88341,-0.0503 -2.53906,-0.0668 -0.65565,-0.0165 -0.9786,-0.0221 -1.39481,-0.0334 -0.41621,-0.0113 -0.75582,-0.0163 -1.10248,-0.0334 -0.34666,-0.0171 -0.68766,-0.0394 -0.97721,-0.0668 -0.28955,-0.0274 -0.54325,-0.0586 -0.76005,-0.0919 -0.2168,-0.0333 -0.38796,-0.0593 -0.54112,-0.10076 -0.15316,-0.0415 -0.26284,-0.0934 -0.37798,-0.13584 -0.11514,-0.0424 -0.22159,-0.0781 -0.31301,-0.11811 -0.0914,-0.04 -0.16035,-0.0747 -0.23624,-0.11812 -0.0759,-0.0434 -0.15158,-0.0923 -0.21851,-0.14174 -0.0669,-0.0495 -0.13241,-0.10732 -0.18309,-0.15355 -0.0507,-0.0462 -0.0789,-0.0712 -0.12258,-0.12158 -0.0437,-0.0504 -0.0948,-0.1084 -0.13584,-0.18278 -0.0411,-0.0744 -0.1021,-0.26304 -0.1021,-0.26304 h -9.99999"
           id="path1103"
           inkscape:connector-curvature="0"
           sodipodi:nodetypes="ccccczzzzzzzzzzzzzzcc" />
        <path
           style="display:inline;fill:none;stroke:#000000;stroke-width:0.2;stroke-linecap:butt;stroke-linejoin:miter;stroke-miterlimit:4;stroke-dasharray:none;stroke-opacity:1"
           d="m 119.66931,160.72777 v -11.08295 c 0,0 0.0675,-0.0728 0.15902,-0.11502 0.0915,-0.0422 0.22491,-0.0652 0.39673,-0.0961 0.17182,-0.0309 0.40272,-0.0602 0.63476,-0.0752 0.23204,-0.015 0.52606,-0.014 0.75587,-0.008 0.22981,0.006 0.37154,0.017 0.62224,0.0376 0.2507,0.0206 0.48787,0.0494 0.88116,0.0918 0.39329,0.0425 1.47833,0.16513 1.47833,0.16513 v 12.00685"
           id="path1139"
           inkscape:connector-curvature="0"
           sodipodi:nodetypes="cczzzzzzcc" />
        <path
           style="display:inline;fill:none;stroke:#000000;stroke-width:0.2;stroke-linecap:butt;stroke-linejoin:miter;stroke-miterlimit:4;stroke-dasharray:none;stroke-opacity:1"
           d="m 122.4957,161.56024 v -0.29857 h 1.1129 v 0.38999"
           id="path1143"
           inkscape:connector-curvature="0" />
        <path
           style="display:inline;fill:none;stroke:#000000;stroke-width:0.2;stroke-linecap:butt;stroke-linejoin:miter;stroke-miterlimit:4;stroke-dasharray:none;stroke-opacity:1"
           d="m 123.11909,149.47968 v 11.78199"
           id="path1145"
           inkscape:connector-curvature="0" />
        <path
           style="display:inline;fill:none;stroke:#000000;stroke-width:0.2;stroke-linecap:butt;stroke-linejoin:miter;stroke-miterlimit:4;stroke-dasharray:none;stroke-opacity:1"
           d="m 124.59742,159.3603 0.31857,0.18394 v 2.10742"
           id="path1147"
           inkscape:connector-curvature="0" />
        <path
           style="display:inline;fill:none;stroke:#000000;stroke-width:0.2;stroke-linecap:butt;stroke-linejoin:miter;stroke-miterlimit:4;stroke-dasharray:none;stroke-opacity:1"
           d="m 87.327105,104.45166 h -1.44 l 1.07743,25.26302 1.57,1e-4"
           id="path1213"
           inkscape:connector-curvature="0" />
        <path
           style="display:inline;fill:none;stroke:#000000;stroke-width:0.2;stroke-linecap:butt;stroke-linejoin:miter;stroke-miterlimit:4;stroke-dasharray:none;stroke-opacity:1"
           d="m 89.927105,158.85165 -3.0779,-64.399283 h -2 c 0,0 -0.23637,0.373033 -0.36706,0.598516 -0.0653,0.112742 -0.13573,0.240695 -0.20627,0.370981 -0.0705,0.130285 -0.14121,0.262902 -0.20714,0.384971 -0.0659,0.122069 -0.13041,0.240662 -0.19342,0.358029 -0.063,0.117368 -0.12453,0.23351 -0.18455,0.350676 -0.06,0.117166 -0.11556,0.227928 -0.17115,0.34113 -0.0556,0.113201 -0.11121,0.228842 -0.1714,0.355764 -0.0602,0.126922 -0.12206,0.257876 -0.18519,0.394976 -0.0631,0.137099 -0.12753,0.280343 -0.19278,0.431847 -0.0653,0.151504 -0.13727,0.325651 -0.20717,0.498872 -0.0699,0.173221 -0.13767,0.345515 -0.19443,0.493315 -0.0568,0.1478 -0.10397,0.274782 -0.14882,0.398771 -0.0448,0.123988 -0.0873,0.244982 -0.13466,0.380805 -0.0473,0.135823 -0.0965,0.27606 -0.1447,0.41853 -0.0482,0.14247 -0.0954,0.28717 -0.13879,0.43192 -0.0434,0.14474 -0.0848,0.29829 -0.12413,0.4496 -0.0394,0.15132 -0.0767,0.30042 -0.1121,0.43628 -0.0354,0.13585 -0.0689,0.26132 -0.10041,0.38311 -0.0315,0.12179 -0.0611,0.2399 -0.0886,0.36103 -0.0275,0.12113 -0.0536,0.2387 -0.0774,0.3558 -0.0239,0.11709 -0.0456,0.2337 -0.0643,0.3529 -0.0187,0.11921 -0.0349,0.23881 -0.0487,0.35888 -0.0138,0.12006 -0.0251,0.24059 -0.034,0.36164 -0.0179,0.24211 -0.0246,0.73095 -0.0246,0.73095 l -1.40032,54.39999"
           id="path1217"
           inkscape:connector-curvature="0"
           sodipodi:nodetypes="cccsssssssssssssssssssssssc" />
        <path
           inkscape:connector-curvature="0"
           style="display:inline;fill:none;fill-opacity:1;stroke:#000000;stroke-width:0.1;stroke-miterlimit:4;stroke-dasharray:none;stroke-opacity:1"
           d="m 86.931385,128.93752 h -0.97948 a 0.25891736,0.25891736 0 0 0 -0.22423,0.12946 0.25891736,0.25891736 0 0 0 0,0.2589 0.25891736,0.25891736 0 0 0 0.22423,0.12946 h 1.00157"
           id="path1233" />
        <path
           style="display:inline;fill:none;stroke:#000000;stroke-width:0.1;stroke-linecap:butt;stroke-linejoin:miter;stroke-miterlimit:4;stroke-dasharray:none;stroke-opacity:1"
           d="m 80.229915,159.24777 0.41932,0.14765 0.72052,0.2067 0.79139,0.13584 1.15164,0.14765 1.26386,0.1063 1.56506,0.0768 1.73633,0.0768 1.7186,-0.0177 h 1.41151"
           id="path1250"
           inkscape:connector-curvature="0" />
        <path
           id="path1840"
           style="display:inline;fill:none;stroke:#000000;stroke-width:0.2;stroke-linecap:butt;stroke-linejoin:miter;stroke-miterlimit:4;stroke-dasharray:none;stroke-opacity:1"
           d="m 70.952604,164.31522 c 0,0 -0.772465,-0.18994 -1.066673,-0.28205 -0.294208,-0.0921 -0.475926,-0.16119 -0.701583,-0.25474 -0.225657,-0.0935 -0.465328,-0.20911 -0.65147,-0.30484 -0.186142,-0.0957 -0.331252,-0.16624 -0.467722,-0.26311 -0.13647,-0.0969 -0.249547,-0.20877 -0.35079,-0.30903 -0.101243,-0.10025 -0.187941,-0.18681 -0.258919,-0.28815 -0.07098,-0.10134 -0.121572,-0.21679 -0.167042,-0.3132 -0.04547,-0.0964 -0.07671,-0.15498 -0.10858,-0.2631 -0.03187,-0.10812 -0.07087,-0.25468 -0.07087,-0.38525 0,-0.13057 0.039,-0.27713 0.07087,-0.38525 0.03187,-0.10812 0.06311,-0.16669 0.10858,-0.2631 0.04547,-0.0964 0.09606,-0.21186 0.167042,-0.3132 0.07098,-0.10134 0.157676,-0.1879 0.258919,-0.28815 0.101243,-0.10025 0.21432,-0.21216 0.35079,-0.30903 0.13647,-0.0969 0.28158,-0.16736 0.467722,-0.2631 0.186142,-0.0957 0.425813,-0.2113 0.65147,-0.30485 0.225657,-0.0935 0.407375,-0.16263 0.701583,-0.25474 0.294208,-0.0921 1.066673,-0.28205 1.066673,-0.28205"
           inkscape:connector-curvature="0"
           sodipodi:nodetypes="czzzzzzzzzzzzzzzzzc" />
        <path
           id="path1842"
           style="display:inline;fill:none;stroke:#000000;stroke-width:0.2;stroke-linecap:butt;stroke-linejoin:miter;stroke-miterlimit:4;stroke-dasharray:none;stroke-opacity:1"
           d="m 71.324777,164.35349 c 0,0 -0.971372,-0.30332 -1.256062,-0.41132 -0.28469,-0.108 -0.316453,-0.13732 -0.463613,-0.2008 -0.14716,-0.0635 -0.263781,-0.10557 -0.419317,-0.18013 -0.155536,-0.0746 -0.358083,-0.17066 -0.510924,-0.2714 -0.152841,-0.10074 -0.284104,-0.21438 -0.40508,-0.32573 -0.120976,-0.11135 -0.235665,-0.22172 -0.321558,-0.33827 -0.08589,-0.11655 -0.147963,-0.24331 -0.196276,-0.35079 -0.04831,-0.10748 -0.07653,-0.18375 -0.100227,-0.28815 -0.0237,-0.1044 -0.03758,-0.22273 -0.03758,-0.33514 0,-0.11241 0.01388,-0.23074 0.03758,-0.33514 0.0237,-0.1044 0.05191,-0.18067 0.100227,-0.28815 0.04831,-0.10748 0.110383,-0.23424 0.196276,-0.35079 0.08589,-0.11655 0.200582,-0.22692 0.321558,-0.33827 0.120976,-0.11135 0.252239,-0.22499 0.40508,-0.32573 0.152841,-0.10074 0.355388,-0.19684 0.510924,-0.2714 0.155536,-0.0746 0.272157,-0.11665 0.419317,-0.18013 0.14716,-0.0635 0.178923,-0.0928 0.463613,-0.2008 0.28469,-0.108 1.256062,-0.41133 1.256062,-0.41133"
           inkscape:connector-curvature="0"
           sodipodi:nodetypes="czzzzzzzzzzzzzzzzzc" />
        <path
           id="path1844"
           style="display:inline;fill:none;stroke:#000000;stroke-width:0.2;stroke-linecap:butt;stroke-linejoin:miter;stroke-miterlimit:4;stroke-dasharray:none;stroke-opacity:1"
           d="m 79.370403,164.74071 0.61748,-2.5116 c 0,0 0.03067,-0.1354 0.04086,-0.23172 0.01019,-0.0963 0.01253,-0.23034 0.01253,-0.34564 0,-0.11528 -0.0023,-0.24932 -0.01253,-0.34564 -0.01019,-0.0963 -0.04086,-0.23172 -0.04086,-0.23172 l -0.61748,-2.51159"
           inkscape:connector-curvature="0"
           sodipodi:nodetypes="cczzzcc" />
        <path
           id="path1846"
           style="display:inline;fill:none;stroke:#000000;stroke-width:0.2;stroke-linecap:butt;stroke-linejoin:miter;stroke-miterlimit:4;stroke-dasharray:none;stroke-opacity:1"
           d="m 78.926819,164.73502 0.619955,-2.50591 c 0,0 0.03067,-0.1354 0.04086,-0.23172 0.01019,-0.0963 0.01253,-0.23034 0.01253,-0.34564 0,-0.11528 -0.0023,-0.24932 -0.01253,-0.34564 -0.01019,-0.0963 -0.04086,-0.23172 -0.04086,-0.23172 l -0.619955,-2.50591"
           inkscape:connector-curvature="0"
           sodipodi:nodetypes="cczzzcc" />
        <path
           sodipodi:nodetypes="cczzzcczzcc"
           inkscape:connector-curvature="0"
           id="path1848"
           d="m 84.251685,161.65185 v 0.51265 c 0,0 0.01159,0.0769 0.02953,0.11221 0.01794,0.0353 0.0455,0.0694 0.07678,0.0945 0.03128,0.0251 0.07098,0.0436 0.106307,0.0531 0.03533,0.009 0.100399,0.006 0.100399,0.006 l 1.547341,-0.10631 c 0,0 0.0663,-0.0133 0.09449,-0.0295 0.02819,-0.0162 0.05225,-0.0368 0.07087,-0.065 0.01862,-0.0282 0.03544,-0.10041 0.03544,-0.10041 v -0.47721"
           style="display:inline;fill:none;stroke:#000000;stroke-width:0.2;stroke-linecap:butt;stroke-linejoin:miter;stroke-miterlimit:4;stroke-dasharray:none;stroke-opacity:1" />
        <path
           id="path1850"
           style="display:inline;fill:none;stroke:#000000;stroke-width:0.2;stroke-linecap:butt;stroke-linejoin:miter;stroke-miterlimit:4;stroke-dasharray:none;stroke-opacity:1"
           d="m 113.18469,161.78787 c 0.0293,0.0535 0.0792,0.11153 0.15356,0.16537 0.0743,0.0538 0.15809,0.0856 0.29529,0.13583 0.1372,0.0503 0.32871,0.1039 0.53153,0.14765 0.20282,0.0438 0.42717,0.0748 0.68508,0.10631 0.25791,0.0315 0.58542,0.0635 0.86226,0.0768 0.27684,0.0133 0.4674,0.0121 0.79729,0.006 0.32989,-0.006 0.80905,-0.0281 1.18118,-0.0532 0.37213,-0.0251 0.74515,-0.0612 1.05124,-0.0945 0.30609,-0.0333 0.78549,-0.10041 0.78549,-0.10041 v -0.26576 h -0.0886 l -0.0768,-0.0531 -0.0354,-0.0591 -0.0118,-0.14801 0.0118,-0.14801 0.0354,-0.0591 0.0768,-0.0531 h 0.0886 v -0.26576 c 0,0 -0.4794,-0.0671 -0.78549,-0.10041 -0.30609,-0.0333 -0.67911,-0.0694 -1.05124,-0.0945 -0.37213,-0.0251 -0.85129,-0.0472 -1.18118,-0.0532 -0.32989,-0.006 -0.52045,-0.007 -0.79729,0.006 -0.27684,0.0133 -0.60435,0.0453 -0.86226,0.0768 -0.25791,0.0315 -0.48226,0.0625 -0.68508,0.10631 -0.20282,0.0437 -0.39433,0.0973 -0.53153,0.14765 -0.1372,0.0502 -0.22099,0.082 -0.29529,0.13583 -0.0744,0.0538 -0.12426,0.11187 -0.15356,0.16537 -0.0294,0.0535 -0.0354,0.13612 -0.0354,0.13612 0,0 0.006,0.0826 0.0354,0.13612 z"
           inkscape:connector-curvature="0"
           sodipodi:nodetypes="cccccscsscccccccccccsscsccccccc" />
        <path
           id="path1852"
           style="display:inline;fill:none;stroke:#000000;stroke-width:0.2;stroke-linecap:butt;stroke-linejoin:miter;stroke-miterlimit:4;stroke-dasharray:none;stroke-opacity:1"
           d="m 119.52761,162.10974 3.70841,-0.45799 -3.70841,-0.45798"
           inkscape:connector-curvature="0"
           sodipodi:nodetypes="ccc" />
        <path
           sodipodi:nodetypes="ccccczzzzzzzzzzzzzzcc"
           inkscape:connector-curvature="0"
           id="path1854"
           d="m 120.19024,162.02793 v 0.54551 l -5.724,0.0251 -6.94066,0.10023 -6.55646,0.10858 c 0,0 -1.275055,0.004 -2.037935,0.0167 -0.76288,0.0132 -1.88341,0.0503 -2.53906,0.0668 -0.65565,0.0165 -0.9786,0.0221 -1.39481,0.0334 -0.41621,0.0113 -0.75582,0.0163 -1.10248,0.0334 -0.34666,0.0171 -0.68766,0.0394 -0.97721,0.0668 -0.28955,0.0274 -0.54325,0.0586 -0.76005,0.0919 -0.2168,0.0333 -0.38796,0.0593 -0.54112,0.10076 -0.15316,0.0415 -0.26284,0.0934 -0.37798,0.13584 -0.11514,0.0424 -0.22159,0.0781 -0.31301,0.11811 -0.0914,0.04 -0.16035,0.0747 -0.23624,0.11813 -0.0759,0.0434 -0.15158,0.0923 -0.21851,0.14174 -0.0669,0.0495 -0.13241,0.10731 -0.18309,0.15354 -0.0507,0.0462 -0.0789,0.0712 -0.12258,0.12158 -0.0437,0.0504 -0.0948,0.1084 -0.13584,0.18278 -0.0411,0.0744 -0.1021,0.26304 -0.1021,0.26304 h -9.99999"
           style="display:inline;fill:none;stroke:#000000;stroke-width:0.2;stroke-linecap:butt;stroke-linejoin:miter;stroke-miterlimit:4;stroke-dasharray:none;stroke-opacity:1" />
        <path
           sodipodi:nodetypes="cczzzzzzcc"
           inkscape:connector-curvature="0"
           id="path1856"
           d="m 119.66931,162.57573 v 11.08296 c 0,0 0.0675,0.0728 0.15902,0.11501 0.0915,0.0422 0.22491,0.0652 0.39673,0.0961 0.17182,0.0309 0.40272,0.0602 0.63476,0.0752 0.23204,0.015 0.52606,0.014 0.75587,0.008 0.22981,-0.006 0.37154,-0.017 0.62224,-0.0376 0.2507,-0.0206 0.48787,-0.0494 0.88116,-0.0918 0.39329,-0.0425 1.47833,-0.16514 1.47833,-0.16514 v -12.00684"
           style="display:inline;fill:none;stroke:#000000;stroke-width:0.2;stroke-linecap:butt;stroke-linejoin:miter;stroke-miterlimit:4;stroke-dasharray:none;stroke-opacity:1" />
        <path
           inkscape:connector-curvature="0"
           id="path1858"
           d="m 122.4957,161.74326 v 0.29858 h 1.1129 v -0.39"
           style="display:inline;fill:none;stroke:#000000;stroke-width:0.2;stroke-linecap:butt;stroke-linejoin:miter;stroke-miterlimit:4;stroke-dasharray:none;stroke-opacity:1" />
        <path
           inkscape:connector-curvature="0"
           id="path1860"
           d="M 123.11909,173.82382 V 162.04183"
           style="display:inline;fill:none;stroke:#000000;stroke-width:0.2;stroke-linecap:butt;stroke-linejoin:miter;stroke-miterlimit:4;stroke-dasharray:none;stroke-opacity:1" />
        <path
           inkscape:connector-curvature="0"
           id="path1862"
           d="m 124.59742,163.9432 0.31857,-0.18393 v -2.10743"
           style="display:inline;fill:none;stroke:#000000;stroke-width:0.2;stroke-linecap:butt;stroke-linejoin:miter;stroke-miterlimit:4;stroke-dasharray:none;stroke-opacity:1" />
        <path
           inkscape:connector-curvature="0"
           id="path1864"
           d="m 87.327105,218.85185 h -1.44 l 1.07743,-25.26302 1.57,-1.1e-4"
           style="display:inline;fill:none;stroke:#000000;stroke-width:0.2;stroke-linecap:butt;stroke-linejoin:miter;stroke-miterlimit:4;stroke-dasharray:none;stroke-opacity:1" />
        <path
           sodipodi:nodetypes="cccsssssssssssssssssssssssc"
           inkscape:connector-curvature="0"
           id="path1866"
           d="m 89.927105,164.45185 -3.0779,64.39929 h -2 c 0,0 -0.23637,-0.37303 -0.36706,-0.59852 -0.0653,-0.11274 -0.13573,-0.24069 -0.20627,-0.37098 -0.0705,-0.13028 -0.14121,-0.2629 -0.20714,-0.38497 -0.0659,-0.12207 -0.13041,-0.24066 -0.19342,-0.35803 -0.063,-0.11737 -0.12453,-0.23351 -0.18455,-0.35067 -0.06,-0.11717 -0.11556,-0.22793 -0.17115,-0.34113 -0.0556,-0.11321 -0.11121,-0.22885 -0.1714,-0.35577 -0.0602,-0.12692 -0.12206,-0.25787 -0.18519,-0.39497 -0.0631,-0.1371 -0.12753,-0.28035 -0.19278,-0.43185 -0.0653,-0.15151 -0.13727,-0.32565 -0.20717,-0.49887 -0.0699,-0.17323 -0.13767,-0.34552 -0.19443,-0.49332 -0.0568,-0.1478 -0.10397,-0.27478 -0.14882,-0.39877 -0.0448,-0.12399 -0.0873,-0.24498 -0.13466,-0.3808 -0.0473,-0.13583 -0.0965,-0.27607 -0.1447,-0.41854 -0.0482,-0.14246 -0.0954,-0.28716 -0.13879,-0.43191 -0.0434,-0.14475 -0.0848,-0.29829 -0.12413,-0.44961 -0.0394,-0.15132 -0.0767,-0.30042 -0.1121,-0.43627 -0.0354,-0.13586 -0.0689,-0.26133 -0.10041,-0.38312 -0.0315,-0.12178 -0.0611,-0.23989 -0.0886,-0.36102 -0.0275,-0.12114 -0.0536,-0.23871 -0.0774,-0.3558 -0.0239,-0.11709 -0.0456,-0.2337 -0.0643,-0.35291 -0.0187,-0.1192 -0.0349,-0.23881 -0.0487,-0.35887 -0.0138,-0.12007 -0.0251,-0.24059 -0.034,-0.36165 -0.0179,-0.2421 -0.0246,-0.73094 -0.0246,-0.73094 l -1.40032,-54.4"
           style="display:inline;fill:none;stroke:#000000;stroke-width:0.2;stroke-linecap:butt;stroke-linejoin:miter;stroke-miterlimit:4;stroke-dasharray:none;stroke-opacity:1" />
        <path
           inkscape:connector-curvature="0"
           id="path1868"
           d="m 84.048086,192.53184 0.1,-13.09 h 0.44001 l -0.10001,13.09 z"
           style="display:inline;fill:none;stroke:#000000;stroke-width:0.2;stroke-linecap:butt;stroke-linejoin:miter;stroke-miterlimit:4;stroke-dasharray:none;stroke-opacity:1" />
        <path
           id="path1870"
           d="m 86.931385,194.36599 h -0.97948 a 0.25891736,0.25891736 0 0 1 -0.22423,-0.12946 0.25891736,0.25891736 0 0 1 0,-0.2589 0.25891736,0.25891736 0 0 1 0.22423,-0.12946 h 1.00157"
           style="display:inline;fill:none;fill-opacity:1;stroke:#000000;stroke-width:0.1;stroke-miterlimit:4;stroke-dasharray:none;stroke-opacity:1"
           inkscape:connector-curvature="0" />
        <path
           id="path1872"
           style="display:inline;fill:none;stroke:#000000;stroke-width:0.2;stroke-linecap:butt;stroke-linejoin:miter;stroke-miterlimit:4;stroke-dasharray:none;stroke-opacity:1"
           d="m 79.934545,164.74018 c 0,0 -0.30863,0.002 -0.56414,5.3e-4 -0.25551,-0.001 -0.67791,-0.0106 -0.96885,-0.0125 -0.29094,-0.002 -0.50599,0.003 -0.77676,0 -0.27077,-0.003 -0.47741,-0.008 -0.84774,-0.0209 -0.37033,-0.013 -0.95006,-0.0439 -1.37394,-0.0626 -0.42388,-0.0187 -0.72096,-0.0239 -1.1693,-0.0501 -0.44834,-0.0262 -1.10322,-0.0787 -1.52009,-0.11276 -0.41687,-0.0341 -0.53096,-0.0441 -0.98138,-0.0877 -0.45042,-0.0436 -1.28843,-0.13118 -1.72055,-0.17957 -0.43212,-0.0484 -0.55511,-0.0559 -0.8728,-0.1044 -0.31769,-0.0485 -0.72143,-0.12877 -1.0315,-0.1921 -0.31007,-0.0633 -0.55995,-0.12105 -0.8293,-0.18447 -0.26936,-0.0634 -0.5381,-0.13007 -0.78684,-0.19556 -0.24874,-0.0655 -0.49638,-0.13231 -0.70576,-0.19627 -0.20938,-0.064 -0.37727,-0.12089 -0.55125,-0.18375 -0.17398,-0.0629 -0.34111,-0.12846 -0.49277,-0.1921 -0.15166,-0.0636 -0.28821,-0.12502 -0.41761,-0.18792 -0.1294,-0.0629 -0.24996,-0.12712 -0.35914,-0.18793 -0.10918,-0.0608 -0.20465,-0.11457 -0.29651,-0.17539 -0.0919,-0.0608 -0.18338,-0.12957 -0.25474,-0.18793 -0.0714,-0.0584 -0.12693,-0.11137 -0.17539,-0.15869 -0.0485,-0.0473 -0.0888,-0.0861 -0.11694,-0.12319 -0.0282,-0.0371 -0.0397,-0.0587 -0.0564,-0.094 -0.0167,-0.0352 -0.0333,-0.0834 -0.0418,-0.11693 -0.008,-0.0335 -0.0125,-0.0545 -0.0125,-0.0822 0,-0.0277 0.0045,-0.0487 0.0125,-0.0822 0.0085,-0.0335 0.0251,-0.0817 0.0418,-0.11693 0.0167,-0.0353 0.0282,-0.0569 0.0564,-0.094 0.02814,-0.0371 0.06844,-0.0759 0.11694,-0.12319 0.04846,-0.0473 0.10399,-0.10029 0.17539,-0.15869 0.07136,-0.0584 0.16284,-0.12713 0.25474,-0.18793 0.09186,-0.0608 0.18733,-0.11459 0.29651,-0.17539 0.10918,-0.0608 0.22974,-0.12503 0.35914,-0.18793 0.1294,-0.0629 0.26595,-0.12432 0.41761,-0.18791 0.15166,-0.0636 0.31879,-0.1292 0.49277,-0.19211 0.17398,-0.0629 0.34187,-0.11975 0.55125,-0.18375 0.20938,-0.064 0.45702,-0.13077 0.70576,-0.19627 0.24874,-0.0655 0.51748,-0.13216 0.78684,-0.19556 0.26935,-0.0634 0.51923,-0.12117 0.8293,-0.18447 0.31007,-0.0633 0.71381,-0.1436 1.0315,-0.1921 0.31769,-0.0485 0.44068,-0.056 0.8728,-0.1044 0.43212,-0.0484 1.27013,-0.13597 1.72055,-0.17957 0.45042,-0.0436 0.56451,-0.0536 0.98138,-0.0877 0.41687,-0.0341 1.07175,-0.0866 1.52009,-0.11276 0.44834,-0.0262 0.74542,-0.0314 1.1693,-0.0501 0.42388,-0.0187 1.00361,-0.0496 1.37394,-0.0626 0.37033,-0.0129 0.57697,-0.0179 0.84774,-0.0209 0.27077,-0.003 0.48582,0.002 0.77676,0 0.29094,-0.002 0.71334,-0.0115 0.96885,-0.0125 0.25551,-0.001 0.56414,5.3e-4 0.56414,5.3e-4"
           inkscape:connector-curvature="0"
           sodipodi:nodetypes="cccscsscscsccccccsccccccczcccccccsccccccscscsscsccc" />
        <path
           inkscape:connector-curvature="0"
           id="path1874"
           d="m 80.229915,164.05573 0.41932,-0.14765 0.72052,-0.2067 0.79139,-0.13584 1.15164,-0.14765 1.26386,-0.1063 1.56506,-0.0768 1.73633,-0.0768 1.7186,0.0177 h 1.41151"
           style="display:inline;fill:none;stroke:#000000;stroke-width:0.1;stroke-linecap:butt;stroke-linejoin:miter;stroke-miterlimit:4;stroke-dasharray:none;stroke-opacity:1" />
        <path
           transform="translate(6.2173194,11.532005)"
           style="display:inline;fill:none;stroke:#000000;stroke-width:0.2;stroke-linecap:butt;stroke-linejoin:miter;stroke-miterlimit:4;stroke-dasharray:none;stroke-opacity:1"
           d="m 77.830767,119.23966 0.1,13.09 h 0.44001 l -0.10001,-13.09 z"
           id="path1229"
           inkscape:connector-curvature="0" />
      </g>
    </g>
  </g>
  <g
     inkscape:groupmode="layer"
     id="layer2"
     inkscape:label="CG"
     style="display:inline">
    <g
       id="g1313">
      <path
         style="display:inline;fill:#000000;stroke:none;stroke-width:0.06952849;stroke-miterlimit:4;stroke-dasharray:none;stroke-opacity:1"
         d="m 82.627841,164.15151 a 2.5000226,2.4999926 0 0 0 2.499814,-2.50018 2.5000226,2.4999926 0 0 0 -2.499783,-2.49976 2.5000226,2.4999926 0 0 0 -2.500218,2.49978 2.5000226,2.4999926 0 0 0 2.500251,2.50022 z m 5e-6,-0.41663 v -2.08313 h -2.083615 a 2.0835498,2.0832386 0 0 1 2.083615,-2.08359 v 2.08359 l 2.083145,1e-5 a 2.0835498,2.0832386 0 0 1 -2.083145,2.08312 z"
         id="path5476-6-3-5-2-3-0-3-6-3-5-3"
         inkscape:connector-curvature="0" />
      <path
         inkscape:connector-curvature="0"
         id="path1276"
         d="m 82.627841,81.086298 a 2.5000226,2.4999926 0 0 0 2.499814,-2.50018 2.5000226,2.4999926 0 0 0 -2.499783,-2.49976 2.5000226,2.4999926 0 0 0 -2.500218,2.49978 2.5000226,2.4999926 0 0 0 2.500251,2.50022 z m 5e-6,-0.41663 v -2.08313 h -2.083615 a 2.0835498,2.0832386 0 0 1 2.083615,-2.08359 v 2.08359 l 2.083145,10e-6 a 2.0835498,2.0832386 0 0 1 -2.083145,2.08312 z"
         style="display:inline;fill:#000000;stroke:none;stroke-width:0.06952849;stroke-miterlimit:4;stroke-dasharray:none;stroke-opacity:1" />
      <path
         inkscape:connector-curvature="0"
         id="path1293"
         d="m 136.9164,164.15151 a 2.5000226,2.4999926 0 0 0 2.49981,-2.50018 2.5000226,2.4999926 0 0 0 -2.49978,-2.49976 2.5000226,2.4999926 0 0 0 -2.50022,2.49978 2.5000226,2.4999926 0 0 0 2.50025,2.50022 z m 0,-0.41663 v -2.08313 h -2.08361 a 2.0835498,2.0832386 0 0 1 2.08361,-2.08359 v 2.08359 l 2.08315,1e-5 a 2.0835498,2.0832386 0 0 1 -2.08315,2.08312 z"
         style="display:inline;fill:#000000;stroke:none;stroke-width:0.06952849;stroke-miterlimit:4;stroke-dasharray:none;stroke-opacity:1" />
    </g>
  </g>
</svg>
