<?xml version="1.0" encoding="UTF-8" standalone="no"?>
<!-- Created with Inkscape (http://www.inkscape.org/) -->

<svg
   xmlns:dc="http://purl.org/dc/elements/1.1/"
   xmlns:cc="http://creativecommons.org/ns#"
   xmlns:rdf="http://www.w3.org/1999/02/22-rdf-syntax-ns#"
   xmlns:svg="http://www.w3.org/2000/svg"
   xmlns="http://www.w3.org/2000/svg"
   xmlns:sodipodi="http://sodipodi.sourceforge.net/DTD/sodipodi-0.dtd"
   xmlns:inkscape="http://www.inkscape.org/namespaces/inkscape"
   width="21cm"
   height="29.700001cm"
   viewBox="0 0 210 297"
   version="1.1"
   id="svg8"
   inkscape:version="0.92.5 (2060ec1f9f, 2020-04-08)"
   sodipodi:docname="pw5.svg">
  <defs
     id="defs2" />
  <sodipodi:namedview
     id="base"
     pagecolor="#ffffff"
     bordercolor="#666666"
     borderopacity="1.0"
     inkscape:pageopacity="0.0"
     inkscape:pageshadow="2"
     inkscape:zoom="0.7"
     inkscape:cx="378.99563"
     inkscape:cy="555.37507"
     inkscape:document-units="cm"
     inkscape:current-layer="layer2"
     showgrid="false"
     inkscape:window-width="1920"
     inkscape:window-height="1015"
     inkscape:window-x="0"
     inkscape:window-y="0"
     inkscape:window-maximized="1"
     units="cm"
     inkscape:object-paths="true"
     inkscape:snap-intersection-paths="false"
     inkscape:snap-smooth-nodes="false"
     inkscape:object-nodes="true"
     inkscape:snap-midpoints="false"
     inkscape:snap-global="true" />
  <metadata
     id="metadata5">
    <rdf:RDF>
      <cc:Work
         rdf:about="">
        <dc:format>image/svg+xml</dc:format>
        <dc:type
           rdf:resource="http://purl.org/dc/dcmitype/StillImage" />
        <dc:title />
      </cc:Work>
    </rdf:RDF>
  </metadata>
  <g
     inkscape:label="Drawing"
     inkscape:groupmode="layer"
     id="layer1"
     style="display:inline">
    <g
       id="g1287">
      <g
         id="g1216">
        <path
           style="display:inline;fill:none;stroke:#000000;stroke-width:0.2;stroke-linecap:butt;stroke-linejoin:miter;stroke-miterlimit:4;stroke-dasharray:none;stroke-opacity:1"
           d="m 121.88869,159.38126 h 0.26184 v 2.28758"
           id="path1080"
           inkscape:connector-curvature="0"
           sodipodi:nodetypes="ccc" />
        <path
           sodipodi:nodetypes="ccc"
           inkscape:connector-curvature="0"
           id="path1082"
           d="m 121.88869,163.95642 h 0.26184 v -2.28758"
           style="display:inline;fill:none;stroke:#000000;stroke-width:0.2;stroke-linecap:butt;stroke-linejoin:miter;stroke-miterlimit:4;stroke-dasharray:none;stroke-opacity:1" />
        <path
           style="fill:none;stroke:#000000;stroke-width:0.2;stroke-linecap:butt;stroke-linejoin:miter;stroke-miterlimit:4;stroke-dasharray:none;stroke-opacity:1"
           d="m 86.630498,164.59279 0.233172,-0.37479 0.378197,-0.32215 0.441221,-0.2381 0.532278,-0.24512 0.672347,-0.16107 23.356047,-0.4712 6.47761,-0.43578 2.48096,-0.67574"
           id="path118"
           inkscape:connector-curvature="0" />
        <path
           style="fill:none;stroke:#000000;stroke-width:0.2;stroke-linecap:butt;stroke-linejoin:miter;stroke-miterlimit:4;stroke-dasharray:none;stroke-opacity:1"
           d="m 116.93854,161.66884 v 12.16438 l 0.9721,0.23126 0.86844,0.084 1.48477,-0.25212 V 161.6688"
           id="path122"
           inkscape:connector-curvature="0" />
        <path
           style="fill:none;stroke:#000000;stroke-width:0.2;stroke-linecap:butt;stroke-linejoin:miter;stroke-miterlimit:4;stroke-dasharray:none;stroke-opacity:1"
           d="m 120.26385,173.89641 h 1.62484 v -12.22757"
           id="path124"
           inkscape:connector-curvature="0" />
        <path
           style="fill:none;stroke:#000000;stroke-width:0.2;stroke-linecap:butt;stroke-linejoin:miter;stroke-miterlimit:4;stroke-dasharray:none;stroke-opacity:1"
           d="m 59.462208,161.66884 0.10895,0.23997 0.247614,0.28721 0.415993,0.28722 0.604181,0.33673 0.960749,0.43577 1.436162,0.42588 1.25788,0.26741 1.980917,0.28721 2.396915,0.30703 5.112473,0.26299 2.609777,0.0557"
           id="path112"
           inkscape:connector-curvature="0"
           sodipodi:nodetypes="cccccccccccc" />
        <path
           style="fill:none;stroke:#000000;stroke-width:0.2;stroke-linecap:butt;stroke-linejoin:miter;stroke-miterlimit:4;stroke-dasharray:none;stroke-opacity:1"
           d="m 84.013241,218.91289 h -1.512812 l 0.896454,-25.07141 h 1.824345"
           id="path120"
           inkscape:connector-curvature="0" />
        <path
           style="fill:none;stroke:#000000;stroke-width:0.2;stroke-linecap:butt;stroke-linejoin:miter;stroke-miterlimit:4;stroke-dasharray:none;stroke-opacity:1"
           d="m 63.450631,161.66884 0.014,0.36416 0.126065,0.32215 0.33617,0.4482 0.490258,0.46222 0.735372,0.35016 0.861445,0.35716 1.185355,0.35618"
           id="path126"
           inkscape:connector-curvature="0" />
        <path
           style="fill:none;stroke:#000000;stroke-width:0.2;stroke-linecap:butt;stroke-linejoin:miter;stroke-miterlimit:4;stroke-dasharray:none;stroke-opacity:1"
           d="m 75.774552,164.84447 1.67439,-0.98458 0.792367,-0.55463 0.415989,-0.44568 0.24762,-0.33672 0.158475,-0.31694 0.07924,-0.23769 0.04956,-0.29939"
           id="path128"
           inkscape:connector-curvature="0" />
        <path
           style="fill:none;stroke:#000000;stroke-width:0.1;stroke-linecap:butt;stroke-linejoin:miter;stroke-miterlimit:4;stroke-dasharray:none;stroke-opacity:1"
           d="m 77.317703,163.93706 2.003087,-0.27231 2.038047,-0.19609 4.405268,-0.056 3.123608,-0.16107"
           id="path130"
           inkscape:connector-curvature="0" />
        <path
           style="fill:none;stroke:#000000;stroke-width:0.1;stroke-linecap:butt;stroke-linejoin:miter;stroke-miterlimit:4;stroke-dasharray:none;stroke-opacity:1"
           d="m 80.805554,161.66884 v 0.60928 l 0.469236,0.28013 h 0.714375 l 0.791402,-0.2031 v -0.68631"
           id="path134"
           inkscape:connector-curvature="0" />
        <path
           id="path138"
           style="fill:none;stroke:#000000;stroke-width:0.2;stroke-linecap:butt;stroke-linejoin:miter;stroke-miterlimit:4;stroke-dasharray:none;stroke-opacity:1"
           d="M 81.253785,179.69504 V 192.5669 H 80.749523 V 179.69504 Z"
           inkscape:connector-curvature="0"
           sodipodi:nodetypes="ccccc" />
        <path
           style="fill:none;stroke:#000000;stroke-width:0.1;stroke-linecap:butt;stroke-linejoin:miter;stroke-miterlimit:4;stroke-dasharray:none;stroke-opacity:1"
           d="m 78.655445,161.66884 -0.04905,0.28013 -0.09805,0.34315 -0.231126,0.36417 -0.5883,0.60227 -0.875449,0.69332 -1.022529,0.6583 -0.448097,0.22507"
           id="path141"
           inkscape:connector-curvature="0" />
        <path
           style="fill:none;stroke:#000000;stroke-width:0.1;stroke-linecap:butt;stroke-linejoin:miter;stroke-miterlimit:4;stroke-dasharray:none;stroke-opacity:1"
           d="m 63.923373,161.66884 0.03153,0.33265 0.0805,0.25912 0.227621,0.38167 0.402707,0.50423 0.560285,0.34316 1.077947,0.57038"
           id="path143"
           inkscape:connector-curvature="0" />
        <path
           style="fill:none;stroke:#000000;stroke-width:0.1;stroke-linecap:butt;stroke-linejoin:miter;stroke-miterlimit:4;stroke-dasharray:none;stroke-opacity:1"
           d="m 83.388791,194.0677 h -1.04698 v 0.49459 h 1.029295"
           id="path145"
           inkscape:connector-curvature="0" />
        <path
           inkscape:connector-curvature="0"
           id="path164"
           d="m 86.630498,158.74489 0.233172,0.37479 0.378197,0.32215 0.441221,0.2381 0.532278,0.24512 0.672347,0.16107 23.356047,0.47121 6.47761,0.43577 2.48096,0.67574"
           style="fill:none;stroke:#000000;stroke-width:0.2;stroke-linecap:butt;stroke-linejoin:miter;stroke-miterlimit:4;stroke-dasharray:none;stroke-opacity:1" />
        <path
           inkscape:connector-curvature="0"
           id="path166"
           d="m 116.93854,161.66884 v -12.16438 l 0.9721,-0.23126 0.86844,-0.084 1.48477,0.25212 v 12.22756"
           style="fill:none;stroke:#000000;stroke-width:0.2;stroke-linecap:butt;stroke-linejoin:miter;stroke-miterlimit:4;stroke-dasharray:none;stroke-opacity:1" />
        <path
           inkscape:connector-curvature="0"
           id="path168"
           d="m 120.26385,149.44127 h 1.62484 v 12.22757"
           style="fill:none;stroke:#000000;stroke-width:0.2;stroke-linecap:butt;stroke-linejoin:miter;stroke-miterlimit:4;stroke-dasharray:none;stroke-opacity:1" />
        <path
           sodipodi:nodetypes="cccccccccccc"
           inkscape:connector-curvature="0"
           id="path170"
           d="m 59.462208,161.66884 0.10895,-0.23997 0.247614,-0.28721 0.415993,-0.28722 0.604181,-0.33673 0.960749,-0.43577 1.436162,-0.42588 1.25788,-0.26741 1.980917,-0.28721 2.396915,-0.30702 5.112473,-0.263 2.609777,-0.0557"
           style="fill:none;stroke:#000000;stroke-width:0.2;stroke-linecap:butt;stroke-linejoin:miter;stroke-miterlimit:4;stroke-dasharray:none;stroke-opacity:1" />
        <path
           sodipodi:nodetypes="cccccccccccccc"
           inkscape:connector-curvature="0"
           id="path172"
           d="M 86.630498,158.74489 84.013241,104.4248 83.533499,94.467924 h -2.073166 l -0.673512,0.980501 -0.465514,0.782417 -0.673512,1.465793 -0.653707,1.624249 -0.505134,1.455886 -0.376369,1.41628 -0.148572,1.22809 -0.04956,1.00366 -1.327211,54.32009 h 10.043253"
           style="fill:none;stroke:#000000;stroke-width:0.2;stroke-linecap:butt;stroke-linejoin:miter;stroke-miterlimit:4;stroke-dasharray:none;stroke-opacity:1" />
        <path
           inkscape:connector-curvature="0"
           id="path174"
           d="m 84.013241,104.4248 h -1.512812 l 0.896454,25.0714 h 1.824345"
           style="fill:none;stroke:#000000;stroke-width:0.2;stroke-linecap:butt;stroke-linejoin:miter;stroke-miterlimit:4;stroke-dasharray:none;stroke-opacity:1" />
        <path
           inkscape:connector-curvature="0"
           id="path176"
           d="m 63.450631,161.66884 0.014,-0.36416 0.126065,-0.32215 0.33617,-0.4482 0.490258,-0.46222 0.735372,-0.35016 0.861445,-0.35716 1.185355,-0.35617"
           style="fill:none;stroke:#000000;stroke-width:0.2;stroke-linecap:butt;stroke-linejoin:miter;stroke-miterlimit:4;stroke-dasharray:none;stroke-opacity:1" />
        <path
           inkscape:connector-curvature="0"
           id="path178"
           d="m 75.774552,158.49321 1.67439,0.98458 0.792367,0.55463 0.415989,0.44568 0.24762,0.33672 0.158475,0.31694 0.07924,0.23769 0.04956,0.29939"
           style="fill:none;stroke:#000000;stroke-width:0.2;stroke-linecap:butt;stroke-linejoin:miter;stroke-miterlimit:4;stroke-dasharray:none;stroke-opacity:1" />
        <path
           inkscape:connector-curvature="0"
           id="path180"
           d="m 77.317703,159.40062 2.003087,0.27231 2.038047,0.19609 4.405268,0.056 3.123608,0.16107"
           style="fill:none;stroke:#000000;stroke-width:0.1;stroke-linecap:butt;stroke-linejoin:miter;stroke-miterlimit:4;stroke-dasharray:none;stroke-opacity:1" />
        <path
           id="path182"
           style="fill:#ffffff;fill-opacity:1;stroke:#000000;stroke-width:0.2;stroke-linecap:butt;stroke-linejoin:miter;stroke-miterlimit:4;stroke-dasharray:none;stroke-opacity:1"
           d="m 117.42386,162.20594 -2.79091,0.26128 -1.41472,0.028 -1.41473,-0.12606 -1.08556,-0.2381 -0.32217,-0.23112 -0.11312,-0.2311 0.11312,-0.2311 0.32217,-0.23112 1.08556,-0.2381 1.41473,-0.12606 1.41472,0.028 2.79091,0.26128 2.83999,0.5371 z"
           inkscape:connector-curvature="0"
           sodipodi:nodetypes="ccccccccccccccc" />
        <path
           inkscape:connector-curvature="0"
           id="path184"
           d="m 80.805554,161.66884 v -0.60928 l 0.469236,-0.28013 h 0.714375 l 0.791402,0.2031 v 0.68631"
           style="fill:none;stroke:#000000;stroke-width:0.1;stroke-linecap:butt;stroke-linejoin:miter;stroke-miterlimit:4;stroke-dasharray:none;stroke-opacity:1" />
        <path
           sodipodi:nodetypes="ccccc"
           inkscape:connector-curvature="0"
           d="m 81.253785,143.64264 v -12.87186 h -0.504262 v 12.87186 z"
           style="fill:none;stroke:#000000;stroke-width:0.2;stroke-linecap:butt;stroke-linejoin:miter;stroke-miterlimit:4;stroke-dasharray:none;stroke-opacity:1"
           id="path186" />
        <path
           inkscape:connector-curvature="0"
           id="path188"
           d="m 78.655445,161.66884 -0.04905,-0.28013 -0.09805,-0.34315 -0.231126,-0.36417 -0.5883,-0.60227 -0.875449,-0.69332 -1.022529,-0.6583 -0.448097,-0.22507"
           style="fill:none;stroke:#000000;stroke-width:0.1;stroke-linecap:butt;stroke-linejoin:miter;stroke-miterlimit:4;stroke-dasharray:none;stroke-opacity:1" />
        <path
           inkscape:connector-curvature="0"
           id="path190"
           d="m 63.923373,161.66884 0.03153,-0.33265 0.0805,-0.25912 0.227621,-0.38167 0.402707,-0.50423 0.560285,-0.34316 1.077947,-0.57037"
           style="fill:none;stroke:#000000;stroke-width:0.1;stroke-linecap:butt;stroke-linejoin:miter;stroke-miterlimit:4;stroke-dasharray:none;stroke-opacity:1" />
        <path
           inkscape:connector-curvature="0"
           id="path192"
           d="m 83.388791,129.26998 h -1.04698 v -0.49459 h 1.029295"
           style="fill:none;stroke:#000000;stroke-width:0.1;stroke-linecap:butt;stroke-linejoin:miter;stroke-miterlimit:4;stroke-dasharray:none;stroke-opacity:1" />
        <path
           sodipodi:nodetypes="cccccccccccccc"
           inkscape:connector-curvature="0"
           id="path172-7"
           d="m 86.630498,164.59279 -2.617257,54.32009 -0.479742,9.95687 h -2.073166 l -0.673512,-0.9805 -0.465514,-0.78241 -0.673512,-1.4658 -0.653707,-1.62425 -0.505134,-1.45588 -0.376369,-1.41628 -0.148572,-1.22809 -0.04956,-1.00366 -1.327211,-54.32009 h 10.043253"
           style="fill:none;stroke:#000000;stroke-width:0.2;stroke-linecap:butt;stroke-linejoin:miter;stroke-miterlimit:4;stroke-dasharray:none;stroke-opacity:1" />
      </g>
      <g
         id="g1120">
        <path
           style="display:inline;fill:none;stroke:#000000;stroke-width:0.2;stroke-linecap:butt;stroke-linejoin:miter;stroke-miterlimit:4;stroke-dasharray:none;stroke-opacity:1"
           d="m 139.54325,158.87764 h 1.81897"
           id="path966"
           inkscape:connector-curvature="0" />
        <path
           style="display:inline;fill:none;stroke:#000000;stroke-width:0.2;stroke-linecap:butt;stroke-linejoin:miter;stroke-miterlimit:4;stroke-dasharray:none;stroke-opacity:1"
           d="m 139.54325,164.46003 h 1.81897"
           id="path968"
           inkscape:connector-curvature="0" />
        <path
           style="fill:none;stroke:#000000;stroke-width:0.2;stroke-linecap:butt;stroke-linejoin:miter;stroke-miterlimit:4;stroke-dasharray:none;stroke-opacity:1"
           d="m 133.58815,161.66884 v -0.47337 h -1.25788 l -0.15848,0.0496 -0.099,0.099 -0.0595,0.11884 -0.0198,0.20597"
           id="path4597"
           inkscape:connector-curvature="0" />
        <path
           style="fill:none;stroke:#000000;stroke-width:0.2;stroke-linecap:butt;stroke-linejoin:miter;stroke-miterlimit:4;stroke-dasharray:none;stroke-opacity:1"
           d="m 133.0434,161.19547 0.0496,-0.37636 0.15847,-0.34664 0.25752,-0.38625 0.32685,-0.38626 0.4358,-0.35654 0.4358,-0.28722 0.56456,-0.23769 0.59428,-0.15847 0.68342,-0.0792 0.78246,-0.01 0.78246,0.0297 0.90132,0.11885 0.89141,0.26741 0.49523,0.20798 0.54476,0.28722 0.58436,0.39616 0.46552,0.4952 0.25752,0.33673 0.15848,0.44568 0.0891,0.51299"
           id="path4599"
           inkscape:connector-curvature="0" />
        <path
           style="fill:none;stroke:#000000;stroke-width:0.2;stroke-linecap:butt;stroke-linejoin:miter;stroke-miterlimit:4;stroke-dasharray:none;stroke-opacity:1"
           d="m 137.24221,158.57204 0.0899,0.28608 0.18818,0.19808 0.35657,0.2377 0.28723,0.27731 0.25752,0.37635 0.2179,0.5051 0.16838,0.4952 0.0792,0.40607 0.0198,0.31491"
           id="path4601"
           inkscape:connector-curvature="0" />
        <path
           style="fill:none;stroke:#000000;stroke-width:0.2;stroke-linecap:butt;stroke-linejoin:miter;stroke-miterlimit:4;stroke-dasharray:none;stroke-opacity:1"
           d="m 139.54325,158.87764 3.33541,-64.409721 h 0.45561 l -1.99861,65.277411"
           id="path4603"
           inkscape:connector-curvature="0" />
        <path
           style="display:inline;fill:none;stroke:#000000;stroke-width:0.2;stroke-linecap:butt;stroke-linejoin:miter;stroke-miterlimit:4;stroke-dasharray:none;stroke-opacity:1"
           d="m 142.60887,160.96991 v -11.39243 l -0.0415,-0.15619 -0.1044,-0.071 h -0.12111 l -0.1044,0.0543 -0.0585,0.10023 -0.0125,0.0835 v 11.00639"
           id="path964"
           inkscape:connector-curvature="0" />
        <path
           style="fill:none;stroke:#000000;stroke-width:0.2;stroke-linecap:butt;stroke-linejoin:miter;stroke-miterlimit:4;stroke-dasharray:none;stroke-opacity:1"
           d="m 142.34419,160.96182 7.64596,0.23365 0.24761,0.0792 0.1981,0.13867 0.0991,0.25547"
           id="path4605"
           inkscape:connector-curvature="0" />
        <path
           style="fill:none;stroke:#000000;stroke-width:0.2;stroke-linecap:butt;stroke-linejoin:miter;stroke-miterlimit:4;stroke-dasharray:none;stroke-opacity:1"
           d="m 142.15826,132.87788 1.3741,0.0417 -0.4358,12.77616 -1.29547,-1.15214"
           id="path4607"
           inkscape:connector-curvature="0" />
        <path
           inkscape:connector-curvature="0"
           id="path4617"
           d="m 133.58815,161.66884 v 0.47336 h -1.25788 l -0.15848,-0.0496 -0.099,-0.099 -0.0595,-0.11885 -0.0198,-0.20597"
           style="fill:none;stroke:#000000;stroke-width:0.2;stroke-linecap:butt;stroke-linejoin:miter;stroke-miterlimit:4;stroke-dasharray:none;stroke-opacity:1" />
        <path
           inkscape:connector-curvature="0"
           id="path4619"
           d="m 133.0434,162.1422 0.0496,0.37636 0.15847,0.34664 0.25752,0.38625 0.32685,0.38626 0.4358,0.35654 0.4358,0.28722 0.56456,0.23769 0.59428,0.15847 0.68342,0.0792 0.78246,0.01 0.78246,-0.0297 0.90132,-0.11885 0.89141,-0.26741 0.49523,-0.20798 0.54476,-0.28721 0.58436,-0.39616 0.46552,-0.49521 0.25752,-0.33673 0.15848,-0.44568 0.0891,-0.51299"
           style="fill:none;stroke:#000000;stroke-width:0.2;stroke-linecap:butt;stroke-linejoin:miter;stroke-miterlimit:4;stroke-dasharray:none;stroke-opacity:1" />
        <path
           inkscape:connector-curvature="0"
           id="path4621"
           d="m 137.24221,164.76563 0.0899,-0.28608 0.18818,-0.19808 0.35657,-0.2377 0.28723,-0.27731 0.25752,-0.37635 0.2179,-0.5051 0.16838,-0.4952 0.0792,-0.40606 0.0198,-0.31491"
           style="fill:none;stroke:#000000;stroke-width:0.2;stroke-linecap:butt;stroke-linejoin:miter;stroke-miterlimit:4;stroke-dasharray:none;stroke-opacity:1" />
        <path
           inkscape:connector-curvature="0"
           id="path4623"
           d="m 139.54325,164.46003 3.33541,64.40972 h 0.45561 l -1.99861,-65.27741"
           style="fill:none;stroke:#000000;stroke-width:0.2;stroke-linecap:butt;stroke-linejoin:miter;stroke-miterlimit:4;stroke-dasharray:none;stroke-opacity:1" />
        <path
           inkscape:connector-curvature="0"
           id="path4627"
           d="m 142.15826,190.45979 1.3741,-0.0417 -0.4358,-12.77617 -1.29547,1.15214"
           style="fill:none;stroke:#000000;stroke-width:0.2;stroke-linecap:butt;stroke-linejoin:miter;stroke-miterlimit:4;stroke-dasharray:none;stroke-opacity:1" />
        <circle
           style="display:inline;fill:none;fill-opacity:1;stroke:#000000;stroke-width:0.1;stroke-miterlimit:4;stroke-dasharray:none;stroke-opacity:1"
           id="path893"
           cx="136.10699"
           cy="161.66866"
           r="0.26726952" />
        <path
           inkscape:connector-curvature="0"
           id="path1043"
           d="m 142.60887,162.36771 v 11.39243 l -0.0415,0.15619 -0.1044,0.071 h -0.12111 l -0.1044,-0.0543 -0.0585,-0.10023 -0.0125,-0.0835 v -11.00639"
           style="display:inline;fill:none;stroke:#000000;stroke-width:0.2;stroke-linecap:butt;stroke-linejoin:miter;stroke-miterlimit:4;stroke-dasharray:none;stroke-opacity:1" />
        <path
           inkscape:connector-curvature="0"
           id="path1045"
           d="m 142.34419,162.3758 7.64596,-0.23365 0.24761,-0.0792 0.1981,-0.13867 0.0991,-0.25547"
           style="fill:none;stroke:#000000;stroke-width:0.2;stroke-linecap:butt;stroke-linejoin:miter;stroke-miterlimit:4;stroke-dasharray:none;stroke-opacity:1" />
      </g>
      <g
         id="g1152">
        <path
           style="fill:none;stroke:#000000;stroke-width:0.1;stroke-linecap:butt;stroke-linejoin:miter;stroke-miterlimit:4;stroke-dasharray:none;stroke-opacity:1"
           d="M 63.145647,87.173616 H 88.564543"
           id="path975"
           inkscape:connector-curvature="0" />
        <path
           style="fill:none;stroke:#000000;stroke-width:0.2;stroke-linecap:butt;stroke-linejoin:miter;stroke-miterlimit:4;stroke-dasharray:none;stroke-opacity:1"
           d="m 76.587244,78.877171 0.552733,0.182083 0.392202,0.09805 0.490253,0.08404 0.672346,0.04202 2.409239,0.01399 2.171115,-0.09805 1.61083,-0.182082 1.134583,-0.168075 0.609952,-0.04202 -2.500924,-2.479128 -0.910469,-0.672306 -0.630323,-0.11205 -1.638843,-0.04202 -1.414728,0.182083 -0.532273,0.182083 -0.364188,0.224102 -0.308159,0.280127 -0.210108,0.266122 z"
           id="path330"
           inkscape:connector-curvature="0"
           sodipodi:nodetypes="cccccccccccccccccccc" />
        <path
           style="fill:none;stroke:#000000;stroke-width:0.2;stroke-linecap:butt;stroke-linejoin:miter;stroke-miterlimit:4;stroke-dasharray:none;stroke-opacity:1"
           d="m 84.129573,76.327999 -1.316677,0.196101 1.162598,1.176536 1.321654,-0.215237"
           id="path332"
           inkscape:connector-curvature="0" />
        <path
           style="fill:none;stroke:#000000;stroke-width:0.2;stroke-linecap:butt;stroke-linejoin:miter;stroke-miterlimit:4;stroke-dasharray:none;stroke-opacity:1"
           d="m 86.630497,78.807126 0.664703,0.182097 0.88946,0.07003 1.015521,-0.02101"
           id="path334"
           inkscape:connector-curvature="0"
           sodipodi:nodetypes="cccc" />
        <path
           style="fill:none;stroke:#000000;stroke-width:0.2;stroke-linecap:butt;stroke-linejoin:miter;stroke-miterlimit:4;stroke-dasharray:none;stroke-opacity:1"
           d="m 120.54831,78.092784 -0.042,1.792816 -0.15408,0.742337 -0.36419,0.798363 h -0.81241 l -2.35321,-0.994451 -1.14859,-0.532242 -0.47625,-0.05603 -21.267372,0.254388 -1.683781,0.237696 -1.505497,0.396162 -1.327214,0.544721 -1.277693,0.623952 -1.495592,0.732896 -2.446434,1.119153 -2.387007,1.158764 -0.901317,0.39616 -1.733303,0.376354 -2.61481,0.2575 -3.526035,-0.03958 L 70.436523,85.782896 68.079231,85.555104 65.939839,85.257978 64.751289,85.05 63.364647,84.698406 62.042384,84.267583 60.621075,83.613915 59.992134,83.227658 v -0.683375 l 0.396184,-0.401107 0.66856,-0.524918 0.792367,-0.470433 0.926078,-0.519963 1.260946,-0.630184 1.561803,-0.693316 1.666857,-0.658299 1.512778,-0.497226 1.421732,-0.469214 1.757904,-0.455207 1.743897,-0.378172 1.925288,-0.333495 1.386643,-0.19808 0.891413,0.02971 0.426036,0.02564"
           id="path336"
           inkscape:connector-curvature="0" />
        <path
           style="fill:none;stroke:#000000;stroke-width:0.2;stroke-linecap:butt;stroke-linejoin:miter;stroke-miterlimit:4;stroke-dasharray:none;stroke-opacity:1"
           d="m 76.587244,78.877168 -0.396185,0.903905 -0.307043,0.693279 -0.118854,0.227794 -0.198093,0.217887 -0.287232,0.188178 -0.376374,0.09903 -6.121037,0.485299 -0.356565,-0.0099 L 67.97025,81.6133 66.831223,81.227043 65.652576,80.75165 64.009519,80.01102"
           id="path338"
           inkscape:connector-curvature="0" />
        <path
           style="fill:none;stroke:#000000;stroke-width:0.2;stroke-linecap:butt;stroke-linejoin:miter;stroke-miterlimit:4;stroke-dasharray:none;stroke-opacity:1"
           d="m 81.349171,85.112522 0.287119,0.403673 0.17509,0.147062 h 2.990539 l 0.441226,-0.224102 0.553285,-1.03647 0.638426,-1.675263"
           id="path340"
           inkscape:connector-curvature="0" />
        <path
           style="fill:none;stroke:#000000;stroke-width:0.2;stroke-linecap:butt;stroke-linejoin:miter;stroke-miterlimit:4;stroke-dasharray:none;stroke-opacity:1"
           d="m 84.866522,77.058525 2.784147,0.206933 3.238799,0.178271 18.831262,0.481011 0.36419,-0.03502 0.24513,-0.175079 0.26613,-0.497227 2.47957,-7.122455 0.18819,-0.574433 0.25751,-0.425872 0.33676,-0.287215 0.45561,-0.237697 0.67351,-0.217887 0.73294,-0.118849 2.98129,-0.09904 1.63425,8.913601 -0.75275,0.485296"
           id="path342"
           inkscape:connector-curvature="0" />
        <path
           style="fill:none;stroke:#000000;stroke-width:0.2;stroke-linecap:butt;stroke-linejoin:miter;stroke-miterlimit:4;stroke-dasharray:none;stroke-opacity:1"
           d="m 116.96246,78.085826 0.18209,-0.175081 0.40621,-0.133058 0.67935,-0.119056 1.35295,-0.125767 1.23138,0.125767 1.05054,0.08404 -1.31667,0.350114 -0.9525,0.126101 -0.93848,0.09104 -0.95949,0.04202 -0.49026,-0.04902 -0.23812,-0.119053 z"
           id="path48"
           inkscape:connector-curvature="0" />
        <path
           style="fill:none;stroke:#000000;stroke-width:0.2;stroke-linecap:butt;stroke-linejoin:miter;stroke-miterlimit:4;stroke-dasharray:none;stroke-opacity:1"
           d="m 117.14455,77.910745 h -0.37819 v -9.712488"
           id="path50"
           inkscape:connector-curvature="0" />
        <path
           inkscape:connector-curvature="0"
           style="fill:none;stroke:#000000;stroke-width:0.2;stroke-miterlimit:4;stroke-dasharray:none;stroke-opacity:1"
           d="m 84.921957,85.663257 a 1.5104498,1.5103602 0 0 1 -0.755225,1.308014 1.5104498,1.5103602 0 0 1 -1.51045,0 1.5104498,1.5103602 0 0 1 -0.755225,-1.308014"
           id="path52" />
        <path
           inkscape:connector-curvature="0"
           style="fill:none;stroke:#000000;stroke-width:0.2;stroke-miterlimit:4;stroke-dasharray:none;stroke-opacity:1"
           d="m 68.903194,85.641021 a 1.2152709,1.2151988 0 0 1 -0.73784,0.981733 1.2152709,1.2151988 0 0 1 -1.21727,-0.163001 1.2152709,1.2151988 0 0 1 -0.45352,-1.141265"
           id="path4566" />
        <path
           style="fill:none;stroke:#000000;stroke-width:0.1;stroke-linecap:butt;stroke-linejoin:miter;stroke-miterlimit:4;stroke-dasharray:none;stroke-opacity:1"
           d="m 110.33004,77.714643 0.59641,0.204492 1.08951,0.217888 1.16874,0.19808 1.13903,0.02972 1.05979,-0.148562 1.38284,-0.305508"
           id="path4569"
           inkscape:connector-curvature="0" />
        <path
           style="fill:none;stroke:#000000;stroke-width:0.2;stroke-linecap:butt;stroke-linejoin:miter;stroke-opacity:1;stroke-miterlimit:4;stroke-dasharray:none"
           d="m 112.99904,70.315298 h -5.42306 l -0.14198,0.0318 -0.11693,0.11693 -0.33409,0.701582"
           id="path885"
           inkscape:connector-curvature="0" />
        <path
           style="fill:none;stroke:#000000;stroke-width:0.1;stroke-linecap:butt;stroke-linejoin:miter;stroke-miterlimit:4;stroke-dasharray:none;stroke-opacity:1"
           d="m 64.596962,79.748773 1.336259,0.564571 1.133928,0.472469 0.727437,0.23536 0.417608,0.133633 0.492778,0.06682 6.188959,-0.434314 0.409258,-0.150338 0.150338,-0.167043 0.23386,-0.442666 0.68488,-1.511742 0.183747,-0.283974 1.321728,-1.240612"
           id="path887"
           inkscape:connector-curvature="0"
           sodipodi:nodetypes="ccccccccccccc" />
        <path
           style="fill:none;stroke:#000000;stroke-width:0.1;stroke-linecap:butt;stroke-linejoin:miter;stroke-opacity:1;stroke-miterlimit:4;stroke-dasharray:none"
           d="m 73.599346,78.958185 h -1.87924 v 1.419871 h 1.603618"
           id="path889"
           inkscape:connector-curvature="0" />
        <path
           style="fill:none;stroke:#000000;stroke-width:0.1;stroke-linecap:butt;stroke-linejoin:miter;stroke-miterlimit:4;stroke-dasharray:none;stroke-opacity:1"
           d="m 71.720106,79.100172 h -1.787364 v 1.135896 h 1.787364"
           id="path891"
           inkscape:connector-curvature="0" />
        <path
           style="fill:none;stroke:#000000;stroke-width:0.1;stroke-linecap:butt;stroke-linejoin:miter;stroke-opacity:1;stroke-miterlimit:4;stroke-dasharray:none"
           d="m 65.49817,80.129532 0.876546,-0.311073 2.313551,-0.467722 0.108579,0.04176 0.05011,0.07517 0.152406,1.733298"
           id="path1084"
           inkscape:connector-curvature="0" />
      </g>
    </g>
  </g>
  <g
     inkscape:groupmode="layer"
     id="layer2"
     inkscape:label="CG"
     style="display:inline">
    <g
       id="g1264">
      <path
         inkscape:connector-curvature="0"
         id="path5476-6-3-5-2-3-0-3-6-3-5-3"
         d="m 79.268687,164.1686 a 2.5000226,2.4999926 0 0 0 2.499814,-2.50018 2.5000226,2.4999926 0 0 0 -2.499783,-2.49976 2.5000226,2.4999926 0 0 0 -2.500218,2.49978 2.5000226,2.4999926 0 0 0 2.500251,2.50022 z m 5e-6,-0.41663 v -2.08313 h -2.083615 a 2.0835498,2.0832386 0 0 1 2.083615,-2.08359 v 2.08359 l 2.083145,1e-5 a 2.0835498,2.0832386 0 0 1 -2.083145,2.08312 z"
         style="fill:#000000;stroke:none;stroke-width:0.06952849;stroke-miterlimit:4;stroke-dasharray:none;stroke-opacity:1" />
      <path
         style="fill:#000000;stroke:none;stroke-width:0.06952849;stroke-miterlimit:4;stroke-dasharray:none;stroke-opacity:1"
         d="m 79.268687,81.376931 a 2.5000226,2.4999926 0 0 0 2.499814,-2.50018 2.5000226,2.4999926 0 0 0 -2.499783,-2.49976 2.5000226,2.4999926 0 0 0 -2.500218,2.49978 2.5000226,2.4999926 0 0 0 2.500251,2.50022 z m 5e-6,-0.41663 v -2.08313 h -2.083615 a 2.0835498,2.0832386 0 0 1 2.083615,-2.08359 v 2.08359 l 2.083145,10e-6 a 2.0835498,2.0832386 0 0 1 -2.083145,2.08312 z"
         id="path5476-6-3-5-2-3-0-3-6-3-5-3-3"
         inkscape:connector-curvature="0" />
      <path
         inkscape:connector-curvature="0"
         id="path5476-6-3-5-2-3-0-3-6-3-5-3-7-3"
         d="m 140.04084,164.1686 a 2.5000226,2.4999926 0 0 0 2.49981,-2.50018 2.5000226,2.4999926 0 0 0 -2.49978,-2.49976 2.5000226,2.4999926 0 0 0 -2.50022,2.49978 2.5000226,2.4999926 0 0 0 2.50025,2.50022 z m 0,-0.41663 v -2.08313 h -2.08361 a 2.0835498,2.0832386 0 0 1 2.08361,-2.08359 v 2.08359 l 2.08315,1e-5 a 2.0835498,2.0832386 0 0 1 -2.08315,2.08312 z"
         style="fill:#000000;stroke:none;stroke-width:0.06952849;stroke-miterlimit:4;stroke-dasharray:none;stroke-opacity:1" />
    </g>
  </g>
</svg>
